<svg width="96" height="112" viewBox="0 0 96 112" fill="none" xmlns="http://www.w3.org/2000/svg">
<path d="M51.9044 67.5433C53.0921 68.1924 68.6106 83.9492 68.6106 83.9492L80.6941 108.168L85.8727 106.442L78.2325 81.094C77.6652 79.205 76.6365 77.487 75.2393 76.0949L60.0487 60.9492L51.9044 67.5433Z" fill="#FFBE9D"/>
<path d="M70.1194 86.9735L78.8574 82.91L86.8877 108.803L81.2085 110.529C81.2085 110.529 70.5544 87.8435 70.1194 86.9735Z" fill="#F28F8F"/>
<path d="M72.2529 88.3959C72.0408 88.1119 71.8775 87.7945 71.7696 87.4568C71.6061 87.1415 71.4975 86.8006 71.4485 86.4487C71.6601 86.7336 71.8245 87.0507 71.9353 87.3878C72.0959 87.7041 72.2032 88.0447 72.2529 88.3959Z" fill="#263238"/>
<path d="M74.6765 87.2705C74.4236 86.9912 74.2278 86.6651 74.1 86.3107C73.9176 85.9805 73.8004 85.6183 73.7548 85.2439C73.9644 85.5518 74.1349 85.8847 74.2623 86.2347C74.4402 86.5627 74.5792 86.9103 74.6765 87.2705Z" fill="#263238"/>
<path d="M77.4764 86.1623C77.0816 85.4967 76.7938 84.7732 76.6237 84.0183C76.8485 84.3339 77.021 84.6836 77.1346 85.054C77.3042 85.4039 77.4195 85.7776 77.4764 86.1623Z" fill="#263238"/>
<path d="M72.0837 90.9127L80.2452 87.2704L80.4904 88.0368L72.5153 91.7758L72.0837 90.9127Z" fill="#FAFAFA"/>
<path d="M86.7358 108.254C84.7645 109.048 82.9381 109.777 80.9737 110.008L81.7436 112L82.0889 111.886C83.677 111.365 90.1399 109.124 91.0651 108.399C92.1008 107.595 86.7323 108.254 86.7323 108.254" fill="#455A64"/>
<path d="M81.6124 111.903L81.7125 111.876L81.9991 111.783L83.0348 111.437C83.9151 111.13 85.1062 110.692 86.4458 110.177C87.7853 109.663 88.9557 109.169 89.8119 108.796L90.82 108.354L91.0927 108.227C91.1258 108.215 91.1571 108.198 91.1859 108.178L91.0858 108.213L90.8096 108.327L89.7981 108.748C88.9384 109.093 87.7473 109.587 86.4251 110.101C85.1028 110.616 83.8979 111.061 83.0244 111.382L81.9887 111.758L81.7229 111.855L81.6124 111.903Z" fill="#263238"/>
<path d="M83.0728 109.576C83.0728 109.576 83.6493 109.78 84.3674 109.998C85.0855 110.215 85.6724 110.384 85.6759 110.367C85.6793 110.35 85.1028 110.163 84.3847 109.942C83.6666 109.721 83.0762 109.559 83.0728 109.576Z" fill="#FAFAFA"/>
<path d="M84.074 109.224C84.074 109.224 84.6091 109.435 85.2823 109.659C85.9555 109.884 86.5079 110.053 86.5114 110.039C86.5148 110.025 85.9762 109.828 85.303 109.604C84.6298 109.38 84.0774 109.21 84.074 109.224Z" fill="#FAFAFA"/>
<path d="M88.4068 108.806C88.3825 108.681 88.3732 108.554 88.3791 108.427C88.4019 108.302 88.4378 108.181 88.4862 108.064C88.388 108.153 88.3285 108.277 88.3204 108.409C88.3058 108.478 88.306 108.549 88.3209 108.617C88.3358 108.686 88.365 108.75 88.4068 108.806Z" fill="#263238"/>
<path d="M88.9971 108.706C88.974 108.592 88.959 108.477 88.9522 108.361C88.9675 108.243 88.9976 108.127 89.042 108.016C88.9944 108.056 88.9563 108.106 88.9306 108.163C88.9049 108.22 88.8923 108.282 88.8935 108.344C88.8846 108.408 88.8892 108.474 88.907 108.536C88.9249 108.598 88.9556 108.656 88.9971 108.706Z" fill="#263238"/>
<path d="M87.8164 108.9C87.7901 108.766 87.7797 108.629 87.7853 108.492C87.8083 108.359 87.8453 108.228 87.8958 108.102C87.7944 108.206 87.7353 108.344 87.7301 108.489C87.7044 108.632 87.7353 108.779 87.8164 108.9Z" fill="#263238"/>
<path d="M87.6127 108.168C87.6463 108.149 87.6776 108.125 87.7059 108.099C87.7873 108.034 87.8646 107.963 87.9372 107.888C88.0468 107.775 88.1304 107.64 88.1823 107.491C88.2123 107.4 88.2228 107.304 88.2134 107.208C88.2109 107.155 88.1951 107.103 88.1674 107.057C88.1396 107.011 88.1009 106.973 88.0546 106.946C88.0096 106.927 87.9595 106.925 87.9132 106.94C87.867 106.956 87.8278 106.987 87.8026 107.029C87.756 107.095 87.722 107.17 87.7025 107.25C87.6586 107.383 87.6308 107.521 87.6196 107.66C87.6012 107.83 87.6093 108.001 87.6438 108.168V108.189V108.168C87.6438 108.137 87.661 108.123 87.6438 108.123C87.6329 108.136 87.6237 108.15 87.6161 108.164C87.5989 107.998 87.5989 107.83 87.6161 107.664C87.6318 107.529 87.6618 107.396 87.7059 107.267C87.7241 107.194 87.7557 107.125 87.7991 107.063C87.8171 107.032 87.8453 107.009 87.8787 106.997C87.9122 106.985 87.9487 106.985 87.9821 106.997C88.1409 107.091 88.1306 107.325 88.0822 107.474C88.0356 107.617 87.9591 107.749 87.8578 107.861C87.7335 108.057 87.592 108.158 87.6127 108.168Z" fill="#263238"/>
<path d="M87.6334 108.113C87.6314 108.082 87.6244 108.051 87.6127 108.023C87.5889 107.94 87.5565 107.86 87.516 107.785C87.4575 107.672 87.3856 107.566 87.302 107.47C87.2539 107.413 87.1995 107.361 87.1397 107.315C87.1057 107.283 87.0606 107.265 87.0137 107.265C86.9668 107.265 86.9217 107.283 86.8877 107.315C86.8607 107.352 86.8462 107.397 86.8462 107.443C86.8462 107.489 86.8607 107.533 86.8877 107.571C86.9258 107.635 86.9697 107.697 87.0189 107.754C87.1044 107.848 87.2006 107.933 87.3054 108.006C87.3759 108.053 87.4511 108.094 87.5298 108.126C87.5573 108.142 87.588 108.152 87.6196 108.154C87.5196 108.098 87.4228 108.037 87.3296 107.971C87.2297 107.898 87.1393 107.814 87.0603 107.719C86.9809 107.619 86.8497 107.47 86.9395 107.353C86.9809 107.301 87.0603 107.319 87.119 107.353C87.1757 107.397 87.2278 107.447 87.2743 107.502C87.3569 107.593 87.4298 107.692 87.4919 107.798C87.592 107.988 87.623 108.116 87.6334 108.113Z" fill="#263238"/>
<path d="M82.1613 109.815C82.2795 109.876 82.4017 109.929 82.5273 109.973L83.4111 110.319C83.7563 110.453 84.074 110.574 84.3053 110.664L84.578 110.757C84.6111 110.77 84.646 110.779 84.6816 110.781C84.5647 110.721 84.4435 110.669 84.3191 110.626L83.4318 110.281C83.0866 110.143 82.7689 110.025 82.5411 109.935L82.2649 109.842C82.2317 109.829 82.1969 109.819 82.1613 109.815Z" fill="#FAFAFA"/>
<path d="M48.1482 65.8241C48.1482 65.8241 30.106 83.8284 27.7273 83.6108C25.3485 83.3933 3.25314 70.2362 3.25314 70.2362L6.419 65.4788L25.7525 74.1789L39.6035 59.2576L48.1482 65.8241Z" fill="#FFBE9D"/>
<path d="M26.4119 77.7175C25.7628 76.6559 25.5177 75.396 25.7214 74.1685C25.7766 74.1685 25.7214 74.9901 25.9285 75.9706C26.1357 76.9511 26.4602 77.6968 26.4119 77.7175Z" fill="#EB996E"/>
<path d="M27.4752 77.2515C26.6367 76.3596 26.0858 75.2361 25.894 74.027C25.9458 74.027 26.1668 74.7934 26.6052 75.6807C27.0437 76.568 27.5201 77.2205 27.4752 77.2515Z" fill="#EB996E"/>
<path d="M18.3229 79.292L22.0308 72.5114L6.41899 65.4789L3.04254 70.5539L18.3229 79.292Z" fill="#F28F8F"/>
<path d="M19.4311 71.341L15.7474 77.9697L15.2502 77.6866L18.8477 71.0752L19.4311 71.341Z" fill="#FAFAFA"/>
<path d="M19.0272 77.9697C18.3104 77.732 17.6358 77.3824 17.0282 76.934C17.3947 77.022 17.7445 77.1689 18.064 77.369C18.4152 77.5162 18.7404 77.7191 19.0272 77.9697Z" fill="#263238"/>
<path d="M20.0526 76.1469C19.6845 76.0879 19.328 75.9714 18.9961 75.8016C18.6428 75.6828 18.3098 75.5104 18.0087 75.2906C18.7318 75.4638 19.422 75.753 20.0526 76.1469Z" fill="#263238"/>
<path d="M20.9881 74.2859C20.6642 74.1962 20.3515 74.0699 20.056 73.9096C19.7375 73.803 19.4336 73.6569 19.1515 73.4746C19.4936 73.4902 19.8277 73.5835 20.1285 73.7474C20.4534 73.8568 20.7479 74.0414 20.9881 74.2859Z" fill="#263238"/>
<path d="M3.37052 70.5469C4.33029 68.6515 5.22446 66.9011 6.55364 65.4339L4.66172 64.4396L4.46838 64.7606C3.61219 66.2003 0.246093 72.1522 0.0113293 73.2915C-0.226887 74.5724 3.37052 70.5469 3.37052 70.5469Z" fill="#455A64"/>
<path d="M4.82397 64.4292C4.82397 64.4292 4.80325 64.4568 4.76528 64.5155L4.61337 64.771L4.06099 65.7273C3.60182 66.5352 2.98384 67.6607 2.33478 68.9208C1.68573 70.1809 1.10918 71.3375 0.708699 72.1729L0.246078 73.188C0.201197 73.2881 0.159766 73.3778 0.125242 73.4607C0.108798 73.4913 0.0960493 73.5237 0.087265 73.5574C0.087265 73.5574 0.107983 73.5263 0.139054 73.4676C0.170126 73.4089 0.221912 73.2984 0.273698 73.1983C0.404889 72.929 0.570606 72.601 0.760488 72.2109C1.17478 71.3789 1.75133 70.2292 2.40728 68.9726C3.06324 67.7159 3.67777 66.5835 4.13349 65.7687L4.66516 64.8021L4.80671 64.5397C4.81675 64.5037 4.82254 64.4666 4.82397 64.4292Z" fill="#263238"/>
<path d="M5.25899 67.1394C5.25899 67.1394 4.68934 67.3638 4.00576 67.6745C3.32219 67.9852 2.7698 68.2442 2.77671 68.258C2.78361 68.2718 3.3429 68.0336 4.02993 67.7263C4.71696 67.419 5.26244 67.1532 5.25899 67.1394Z" fill="#FAFAFA"/>
<path d="M4.73422 68.0613C4.73422 68.0613 4.19219 68.2581 3.53623 68.5343C2.88028 68.8104 2.35551 69.0418 2.36242 69.0556C2.76823 68.9192 3.16691 68.7625 3.55695 68.5861C4.21636 68.3133 4.73422 68.0785 4.73422 68.0613Z" fill="#FAFAFA"/>
<path d="M1.75134 71.2306C1.85058 71.3091 1.94088 71.3982 2.02063 71.4965C2.08705 71.6048 2.14036 71.7207 2.17944 71.8417C2.18519 71.7065 2.14642 71.5732 2.06909 71.4622C1.99176 71.3512 1.88013 71.2686 1.75134 71.2272V71.2306Z" fill="#263238"/>
<path d="M1.37157 71.6931C1.37157 71.7104 1.50966 71.776 1.6305 71.921C1.69168 72.0173 1.7415 72.1204 1.77895 72.2282C1.78807 72.1666 1.78351 72.1037 1.76562 72.0441C1.74772 71.9844 1.71691 71.9294 1.67538 71.883C1.601 71.7844 1.49279 71.7168 1.37157 71.6931Z" fill="#263238"/>
<path d="M2.13455 70.7714C2.23903 70.8575 2.33499 70.9534 2.4211 71.0579C2.49304 71.1731 2.55209 71.2958 2.59717 71.4239C2.59732 71.2805 2.55286 71.1407 2.46997 71.0238C2.38707 70.9069 2.26985 70.8187 2.13455 70.7714Z" fill="#263238"/>
<path d="M2.76979 71.1891C2.75589 71.2246 2.74661 71.2617 2.74217 71.2996C2.74217 71.3721 2.71455 71.4791 2.70765 71.6137C2.69961 71.7708 2.72674 71.9277 2.78705 72.0729C2.82319 72.1613 2.87726 72.2412 2.94587 72.3077C2.9846 72.3454 3.03165 72.3734 3.08322 72.3896C3.13479 72.4058 3.18944 72.4097 3.24277 72.4009C3.28763 72.384 3.32523 72.352 3.34915 72.3104C3.37308 72.2689 3.38184 72.2203 3.37396 72.173C3.3657 72.0916 3.34351 72.0122 3.30836 71.9383C3.25127 71.8103 3.18067 71.6887 3.09777 71.5758C3.00264 71.4364 2.88613 71.3129 2.75253 71.2098H2.73527V71.2305C2.73439 71.2455 2.73439 71.2604 2.73527 71.2754C2.73527 71.2754 2.73527 71.2754 2.73527 71.2271C2.96133 71.4319 3.13934 71.6842 3.25658 71.9659C3.28911 72.0345 3.3101 72.108 3.31872 72.1834C3.32522 72.218 3.31947 72.2538 3.30246 72.2847C3.28546 72.3155 3.25826 72.3395 3.22551 72.3525C3.04599 72.3871 2.89753 72.2041 2.83539 72.0591C2.77588 71.9207 2.74646 71.7713 2.74908 71.6206C2.75253 71.3514 2.78015 71.1891 2.76979 71.1891Z" fill="#263238"/>
<path d="M2.78706 71.2443C2.80917 71.2668 2.83483 71.2854 2.86301 71.2995C2.93529 71.3445 3.01157 71.3826 3.09087 71.4135C3.20954 71.4608 3.33362 71.4933 3.46028 71.5101C3.53606 71.5174 3.61235 71.5174 3.68814 71.5101C3.76064 71.5101 3.87802 71.4549 3.87802 71.3444C3.87435 71.2986 3.85688 71.2549 3.82792 71.2191C3.79895 71.1834 3.75985 71.1573 3.71576 71.1442C3.64368 71.1208 3.56977 71.1034 3.4948 71.0924C3.36869 71.0768 3.24114 71.0768 3.11504 71.0924C3.03072 71.1035 2.94754 71.122 2.86646 71.1476C2.83583 71.1556 2.80669 71.1684 2.78015 71.1856C2.78015 71.1856 2.90789 71.1511 3.12539 71.1338C3.24797 71.1173 3.37222 71.1173 3.4948 71.1338C3.61909 71.158 3.81588 71.1787 3.84004 71.3306C3.84004 71.3962 3.77099 71.4342 3.70194 71.4411C3.63069 71.4464 3.55915 71.4464 3.4879 71.4411C3.36455 71.4259 3.24308 71.3982 3.12539 71.3582C2.90444 71.3064 2.79396 71.2339 2.78706 71.2443Z" fill="#263238"/>
<path d="M5.76993 66.3591C5.64218 66.3918 5.51651 66.4322 5.39362 66.48L4.49599 66.801C4.15075 66.9253 3.82968 67.0427 3.60182 67.1463L3.33599 67.2568L3.23932 67.3051C3.36724 67.273 3.49294 67.2326 3.61563 67.1843L4.51671 66.8632C4.86195 66.7389 5.18302 66.6215 5.40743 66.5179L5.67672 66.4075C5.76993 66.3798 5.7872 66.3626 5.76993 66.3591Z" fill="#FAFAFA"/>
<path d="M28.1139 70.509L39.5483 55.788L59.769 57.1931L70.9065 70.0395C70.9065 70.0395 65.0374 76.3747 60.8255 77.3897L48.6247 67.8507C48.6247 67.8507 38.6472 79.1228 38.8613 78.7983C39.0753 78.4737 31.3557 77.8626 28.1139 70.509Z" fill="#263238"/>
<path d="M40.9499 57.6522C40.922 57.7084 40.8885 57.7616 40.8498 57.811L40.5322 58.2426C40.256 58.6154 39.8417 59.1506 39.3342 59.8031C38.2985 61.1115 36.8554 62.893 35.1913 64.8125C33.5273 66.732 31.9702 68.4203 30.8206 69.6217C30.2475 70.2224 29.7849 70.7023 29.4396 71.0303L29.0564 71.4032C29.014 71.4497 28.9665 71.4914 28.9149 71.5274C28.9149 71.5274 28.9494 71.4722 29.0288 71.379L29.374 70.982L30.7067 69.5354C31.8321 68.3098 33.3754 66.6112 35.036 64.702C36.6966 62.7929 38.1431 61.0183 39.2134 59.7306L40.4563 58.2081L40.8015 57.7938C40.8444 57.7401 40.8943 57.6925 40.9499 57.6522Z" fill="#FAFAFA"/>
<path d="M42.4966 58.0354C42.4694 58.0967 42.4333 58.1537 42.3896 58.2046L42.0444 58.6637C41.7475 59.0608 41.3021 59.6304 40.7463 60.3243C39.6346 61.7053 38.0568 63.611 36.2581 65.6376C34.4594 67.6642 32.7401 69.4352 31.48 70.7023C30.8517 71.3306 30.3373 71.8347 29.9748 72.1765L29.5536 72.57C29.507 72.6186 29.4548 72.6614 29.3982 72.6978C29.4352 72.6407 29.4793 72.5885 29.5294 72.5424L29.923 72.1281L31.3902 70.6125C32.6262 69.3282 34.3144 67.5399 36.1269 65.5168C37.9395 63.4937 39.5241 61.6156 40.66 60.2449L42.0064 58.6189L42.3723 58.1804C42.4084 58.1277 42.4501 58.0791 42.4966 58.0354Z" fill="#FAFAFA"/>
<path d="M50.306 59.7927C50.3317 59.9059 50.341 60.0222 50.3336 60.138C50.3336 60.3555 50.3336 60.6696 50.3336 61.0598C50.3336 61.8365 50.2611 62.9102 50.1472 64.091C50.0919 64.6848 50.0333 65.2441 49.9608 65.7585C49.9056 66.2195 49.7663 66.6665 49.5499 67.0773C49.3985 67.3531 49.1844 67.5896 48.925 67.7678C48.8337 67.8382 48.7274 67.8867 48.6143 67.9093C48.964 67.6885 49.2488 67.3787 49.4394 67.0117C49.8054 66.3212 49.8434 65.2441 49.9711 64.0703C50.0989 62.8964 50.1575 61.8193 50.2093 61.0459C50.2173 60.6267 50.2496 60.2082 50.306 59.7927Z" fill="#455A64"/>
<path d="M70.33 70.3985C70.292 70.4296 67.682 67.4882 64.5023 63.839C61.3226 60.1898 58.7748 57.1793 58.8127 57.1482C58.8507 57.1171 61.4573 60.0586 64.6404 63.7078C67.8235 67.357 70.3507 70.3675 70.33 70.3985Z" fill="#FAFAFA"/>
<path d="M35.3881 33.4577L32.0945 25.8624L19.6969 33.7408C18.3855 34.5723 17.3808 35.8086 16.8349 37.2623C15.592 40.5593 13.2789 46.7253 11.9221 50.4574L11.0072 52.3666C10.4405 53.6368 9.95282 54.9408 9.54688 56.2712C9.13259 57.956 9.30176 57.9974 9.54688 58.0389C10.1649 58.1183 10.4031 55.1147 10.769 55.8259C11.135 56.5371 10.0026 59.4267 10.6482 59.4889C11.4906 59.5683 11.6839 56.4128 11.715 56.1469C11.7461 55.8811 12.1811 55.964 12.1327 56.1987C12.0637 56.544 11.4422 60.1207 12.2605 60.207C12.7196 60.2518 12.654 59.5165 12.654 59.5165C12.654 59.5165 12.9682 56.0986 13.3445 56.1538C13.7208 56.2091 13.6345 58.2253 13.5448 58.8985C13.455 59.5717 13.7726 59.9032 14.1351 59.7236C14.3837 59.6028 14.7117 57.5521 14.7842 56.8823C14.8567 56.2125 15.0155 54.3724 15.7612 55.4116C16.5069 56.4508 17.4874 57.0377 17.8534 57.0411C18.2193 57.0446 18.3022 56.575 17.9535 56.3506C17.6017 56.0844 17.285 55.7746 17.011 55.4288C16.7839 55.166 16.6019 54.8673 16.4724 54.545C16.3654 54.2723 16.2825 54.0306 16.21 53.8131L15.9338 52.4736L23.3772 39.6997L35.3881 33.4577Z" fill="#FFBE9D"/>
<path d="M92.743 21.4814C92.9915 20.67 95.9951 19.3029 95.5463 18.7747C94.9629 18.0842 92.4875 20.3628 92.2631 20.5354C92.0387 20.708 91.7694 20.3317 91.98 20.1902C92.2838 19.9865 95.4117 17.7182 94.8455 17.0416C94.5313 16.6653 94.0238 17.2867 94.0238 17.2867C94.0238 17.2867 91.2619 19.6619 90.9995 19.3305C90.7371 18.9991 92.3114 17.5387 92.8776 17.0899C93.4438 16.6411 93.4473 16.1543 93.0399 16.0231C92.7602 15.9333 90.9926 17.2522 90.4437 17.7113C89.8947 18.1705 88.4102 19.4375 88.6104 18.1118C88.8107 16.7861 88.4965 15.595 88.2169 15.3223C87.9372 15.0495 87.5264 15.3464 87.6334 15.7711C87.7058 16.2347 87.7197 16.7056 87.6748 17.1728C87.6518 17.5368 87.5702 17.8947 87.4332 18.2327C87.3123 18.5192 87.1984 18.7678 87.0879 18.9853L86.3422 20.1556L70.4611 26.7152C70.4611 26.7152 59.7242 26.1456 59.372 26.1456L62.6863 34.024L71.483 34.2311L87.92 24.775L89.9914 23.9429C91.3648 23.3918 92.7023 22.7553 93.9962 22.0372C95.5567 21.0602 95.4669 20.8945 95.3116 20.7011C94.9007 20.1798 92.4979 22.2961 92.743 21.4814Z" fill="#FFBE9D"/>
<path d="M58.6539 33.8824L59.769 56.6994C59.769 56.6994 58.6884 57.78 51.9838 58.6431C45.2793 59.5062 38.3572 56.6165 38.3572 56.6165L38.5885 46.0625L35.9543 32.8605L36.8105 21.9923L47.368 19.9416L57.7252 22.2961" fill="#F28F8F"/>
<path d="M21.2056 31.4519L26.3463 39.5754L36.7242 34.8249C36.7242 34.8249 39.8072 32.0146 39.5932 28.8798C39.3791 25.7451 36.8105 21.975 36.8105 21.975L21.2056 31.4519Z" fill="#F28F8F"/>
<path d="M57.7114 22.2892L66.2906 25.7209V34.8214L57.8875 34.1551L57.7114 22.2892Z" fill="#F28F8F"/>
<path d="M34.494 32.4083C34.5147 32.4773 34.5388 32.5464 34.5596 32.6119C34.5897 32.7212 34.6411 32.8235 34.7108 32.9129C34.7804 33.0023 34.867 33.0771 34.9656 33.133C35.0642 33.189 35.1728 33.225 35.2853 33.2389C35.3978 33.2529 35.5119 33.2445 35.6212 33.2144C35.7304 33.1842 35.8327 33.1329 35.9221 33.0632C36.0115 32.9935 36.0863 32.9069 36.1423 32.8084C36.1982 32.7098 36.2342 32.6011 36.2481 32.4887C36.2621 32.3762 36.2538 32.262 36.2236 32.1528C36.2029 32.0872 36.1787 32.0181 36.158 31.9491C36.0929 31.7309 35.9457 31.5464 35.7475 31.4344C35.5492 31.3223 35.3152 31.2915 35.0947 31.3484C34.8762 31.412 34.6912 31.5583 34.579 31.7563C34.4668 31.9542 34.4363 32.1881 34.494 32.4083Z" fill="#F28F8F"/>
<path d="M34.4594 35.8606C34.5085 35.8194 34.5617 35.7836 34.6182 35.7536L35.0912 35.4808C35.5021 35.2426 36.1062 34.9146 36.8174 34.4693C37.6699 33.975 38.418 33.3195 39.0201 32.5394C39.7298 31.5623 40.2025 30.4336 40.401 29.2423C40.836 26.7048 40.004 24.3019 38.8785 23.0798C38.4347 22.5862 37.8376 22.2566 37.1834 22.1442C36.9413 22.1185 36.6971 22.1185 36.4549 22.1442C36.5144 22.119 36.5772 22.1027 36.6414 22.0959C36.8247 22.0717 37.0104 22.0717 37.1937 22.0959C37.8753 22.1879 38.5037 22.5137 38.9717 23.0177C39.6462 23.7675 40.1305 24.6686 40.3838 25.6449C40.7207 26.8326 40.7879 28.0806 40.5806 29.2976C40.3756 30.5148 39.8872 31.6667 39.1547 32.6602C38.5337 33.4522 37.7616 34.1129 36.883 34.6039C36.1511 35.0389 35.54 35.3462 35.1188 35.5637L34.6286 35.8123C34.5745 35.8355 34.5177 35.8518 34.4594 35.8606Z" fill="#263238"/>
<path d="M59.227 44.2361C59.1752 44.2361 58.8611 39.4684 58.5365 33.582C58.212 27.6956 57.9634 22.9175 58.0118 22.9141C58.0601 22.9106 58.3777 27.6818 58.7022 33.5716C59.0268 39.4614 59.2822 44.2361 59.227 44.2361Z" fill="#263238"/>
<path d="M39.7209 56.8651C39.7132 56.787 39.7132 56.7084 39.7209 56.6303C39.7393 56.4577 39.7635 56.2275 39.7934 55.9398C39.8314 55.6464 39.8694 55.2908 39.9039 54.873C39.9384 54.4553 39.9936 53.9857 40.0213 53.461C40.0972 52.4253 40.1421 51.1617 40.1386 49.7738C40.1352 48.3859 40.0627 46.86 39.9108 45.265C39.7589 43.67 39.5172 42.1578 39.2652 40.7768C39.0132 39.3959 38.7128 38.1979 38.4332 37.1829C38.3054 36.6754 38.1639 36.2231 38.0465 35.8192C37.9291 35.4153 37.8255 35.0769 37.7323 34.7835C37.6391 34.49 37.5804 34.3001 37.5321 34.1379C37.5057 34.0624 37.485 33.9851 37.4699 33.9066C37.5085 33.9756 37.5398 34.0485 37.5632 34.1241C37.6253 34.2863 37.7012 34.4969 37.7979 34.7593C37.8946 35.0217 38.0189 35.3773 38.1432 35.7778C38.2674 36.1782 38.4193 36.6271 38.5574 37.138C38.8509 38.1461 39.1478 39.3683 39.4274 40.732C39.7071 42.0957 39.9281 43.6147 40.0903 45.2201C40.2526 46.8255 40.3009 48.3549 40.3044 49.7462C40.3078 51.1375 40.2422 52.3942 40.149 53.4437C40.111 53.9685 40.0489 54.4415 40.004 54.8558C39.9591 55.27 39.9108 55.6291 39.8625 55.9191C39.8141 56.2091 39.7831 56.4197 39.7554 56.5889C39.7584 56.6822 39.7468 56.7754 39.7209 56.8651Z" fill="#263238"/>
<path d="M55.8091 44.0325C55.7924 44.1943 55.7589 44.354 55.709 44.5089C55.6661 44.695 55.6119 44.8783 55.5467 45.0578C55.4708 45.265 55.3983 45.5101 55.2774 45.7483C55.1609 46.0318 55.0284 46.3084 54.8804 46.5769C54.7177 46.8892 54.5379 47.1923 54.3418 47.4849C53.8892 48.1549 53.3711 48.7782 52.7952 49.3457C52.21 49.9032 51.5704 50.4005 50.886 50.8302C50.5649 51.0167 50.2646 51.1997 49.9607 51.3378C49.6865 51.4754 49.4054 51.5987 49.1184 51.7072C48.8837 51.8011 48.644 51.8818 48.4003 51.9488C48.2197 52.0098 48.0351 52.0583 47.8479 52.0938C47.6906 52.136 47.5301 52.1648 47.368 52.1801C47.368 52.1387 48.0585 52.011 49.07 51.5863C49.3517 51.4733 49.6271 51.3454 49.8951 51.2031C50.1886 51.065 50.4855 50.8751 50.7997 50.6887C52.1467 49.8327 53.3059 48.7122 54.2072 47.3951C54.404 47.0844 54.6008 46.7978 54.7492 46.5078C54.9015 46.2449 55.0398 45.9741 55.1635 45.6965C55.6192 44.7022 55.7711 44.0221 55.8091 44.0325Z" fill="#263238"/>
<path d="M52.2221 21.0843C52.2435 21.1384 52.2564 21.1955 52.26 21.2535C52.2853 21.4157 52.2991 21.5796 52.3015 21.7437C52.314 22.5021 52.1543 23.2535 51.8344 23.9412C51.5144 24.6289 51.0426 25.2351 50.4544 25.714C49.5715 26.4068 48.4681 26.7574 47.3473 26.7014C46.2231 26.6683 45.1529 26.2121 44.3506 25.424C43.715 24.768 43.2926 23.9353 43.1388 23.0349C43.0331 22.4347 43.0591 21.8186 43.2147 21.2293C43.2563 21.0694 43.3117 20.9135 43.3804 20.7633C43.4253 20.6631 43.4529 20.6079 43.4599 20.6114C43.4668 20.6148 43.3735 20.8323 43.2803 21.2466C43.155 21.8286 43.1491 22.4299 43.2631 23.0142C43.4297 23.8798 43.8476 24.6771 44.4645 25.3066C45.2439 26.0556 46.2737 26.4887 47.3542 26.5219C48.4342 26.5764 49.4981 26.2434 50.3543 25.5828C51.0439 25.0321 51.5742 24.3076 51.8906 23.4838C52.1011 22.9316 52.2178 22.3482 52.2359 21.7576C52.2428 21.3191 52.2048 21.0878 52.2221 21.0843Z" fill="#263238"/>
<path d="M38.8543 22.8554C38.8088 22.905 38.7565 22.948 38.699 22.9831L38.2329 23.3284C37.829 23.6149 37.2386 24.0189 36.5067 24.5195C35.0394 25.5138 32.9956 26.8671 30.717 28.3171C28.4384 29.7671 26.3497 31.0687 24.8272 31.9629C24.0677 32.4151 23.4463 32.7811 23.0182 33.0262L22.521 33.3058C22.465 33.3429 22.4047 33.373 22.3415 33.3956C22.3894 33.3476 22.444 33.3069 22.5038 33.2748L22.9836 32.9675L24.7616 31.8524C26.2634 30.9133 28.3383 29.6152 30.6307 28.1618C32.9231 26.7083 34.96 25.3722 36.4446 24.4021L38.2053 23.2593L38.6886 22.9521C38.7411 22.9153 38.7965 22.883 38.8543 22.8554Z" fill="#FAFAFA"/>
<path d="M39.7658 24.043C39.7175 24.09 39.6642 24.1317 39.607 24.1673L39.134 24.5126C38.7232 24.7957 38.119 25.203 37.3698 25.6933C35.868 26.6807 33.7724 28.0064 31.4213 29.4046C29.0702 30.8028 26.8987 32.0146 25.3175 32.857C24.5269 33.2817 23.8847 33.62 23.4359 33.8444L22.918 34.1033C22.8598 34.1373 22.797 34.1629 22.7316 34.1793C22.7845 34.1374 22.8411 34.1004 22.9008 34.0688L23.4014 33.7823L25.2553 32.7465C26.8227 31.8696 28.977 30.6475 31.3281 29.2493C33.6792 27.851 35.7852 26.5426 37.3008 25.5828L39.096 24.4504L39.5897 24.1466C39.6429 24.1035 39.7023 24.0686 39.7658 24.043Z" fill="#FAFAFA"/>
<path d="M66.1042 26.7117C65.9858 26.7003 65.8696 26.6724 65.759 26.6289C65.5484 26.5667 65.248 26.4666 64.8786 26.3389C64.1398 26.0799 63.1317 25.6898 62.0269 25.2479L59.1959 24.1052C58.7979 23.9644 58.4082 23.8007 58.029 23.6149C58.1475 23.6237 58.2639 23.6504 58.3743 23.6943C58.5849 23.7565 58.8852 23.8566 59.2546 23.9878C59.9934 24.2467 61.0015 24.6334 62.1063 25.0787L64.9373 26.218C65.3359 26.3589 65.7256 26.5237 66.1042 26.7117Z" fill="#FAFAFA"/>
<path d="M66.2458 27.4747C65.8402 27.3783 65.4412 27.256 65.0512 27.1088L62.1961 26.149L59.3478 25.172L58.4916 24.8578C58.3833 24.8278 58.2798 24.7825 58.1844 24.7231C58.2965 24.7298 58.407 24.7531 58.5124 24.7922C58.7195 24.8474 59.0199 24.9372 59.3893 25.0511C60.1246 25.2755 61.1396 25.6035 62.2548 25.9798C63.3699 26.3561 64.3745 26.7152 65.0961 26.9879C65.4413 27.126 65.7452 27.2399 65.9454 27.3332C66.1456 27.4264 66.2527 27.4609 66.2458 27.4747Z" fill="#FAFAFA"/>
<path d="M48.1448 35.2322V42.8966H46.3702V36.6546H44.8374V35.2322H48.1448Z" fill="#FAFAFA"/>
<path d="M55.8091 40.4765C55.8091 42.0439 54.5283 43.0278 52.9091 43.0278C50.7928 43.0278 49.4808 41.7021 49.4808 39.2301C49.4808 36.5787 51.0793 35.0873 53.389 35.0873C54.1356 35.0663 54.874 35.2477 55.526 35.612L54.8666 36.9377C54.4381 36.6696 53.939 36.5361 53.4338 36.5545C52.153 36.5545 51.3313 37.3106 51.2761 38.7779C51.5296 38.5417 51.8281 38.3588 52.1537 38.2402C52.4793 38.1216 52.8254 38.0696 53.1715 38.0874C54.6491 38.0909 55.8091 39.0299 55.8091 40.4765ZM54.0829 40.5662C54.0829 39.8757 53.5685 39.4131 52.7813 39.4131C51.9942 39.4131 51.4556 39.8965 51.4556 40.5662C51.4556 41.236 51.9493 41.7021 52.8021 41.7021C53.565 41.7021 54.1036 41.2671 54.1036 40.5662H54.0829Z" fill="#FAFAFA"/>
<g opacity="0.2">
<path opacity="0.2" d="M50.9067 51.0305C49.8661 51.509 48.7484 51.7978 47.6062 51.8832C47.0344 51.9203 46.4615 51.8316 45.9276 51.6235C45.3938 51.4153 44.9121 51.0927 44.5163 50.6783C43.7706 49.8152 43.6221 48.4067 44.3575 47.5332C44.9858 46.7909 46.0595 46.5907 47.0297 46.6356C47.9998 46.6805 48.9699 46.9221 49.9435 46.8634C51.3357 46.7154 52.639 46.108 53.6479 45.1372C54.6486 44.1733 55.5391 43.1011 56.3028 41.9403C56.0884 43.8606 55.4327 45.7053 54.387 47.3302C53.3413 48.9551 51.9339 50.316 50.2749 51.3067" fill="black"/>
</g>
<g opacity="0.2">
<path opacity="0.2" d="M37.9153 42.1371C38.8684 40.8299 39.4819 39.3065 39.7006 37.7035C39.9194 36.1006 39.7365 34.4685 39.1685 32.9537C39.134 32.8674 39.0891 32.7742 39.0028 32.7466C38.9568 32.7418 38.9102 32.7474 38.8666 32.7629C38.823 32.7785 38.7834 32.8035 38.7508 32.8363L36.2063 34.7283C36.738 37.214 37.272 39.6986 37.8083 42.182" fill="black"/>
</g>
<path d="M47.7339 26.1317C48.7653 26.1116 49.7501 25.699 50.4878 24.978C51.2255 24.257 51.6605 23.2818 51.7042 22.2512C51.7698 20.6839 51.8251 19.2477 51.8251 19.2477C51.8251 19.2477 55.1014 18.9024 55.2982 15.6502C55.495 12.3981 55.2982 4.90636 55.2982 4.90636C53.4886 4.02128 51.4753 3.63588 49.4668 3.79005C47.4583 3.94423 45.5275 4.63237 43.8742 5.78326L43.3736 6.1285L43.6118 22.1408C43.6194 22.6738 43.7322 23.2 43.9437 23.6894C44.1552 24.1787 44.4612 24.6214 44.8442 24.9922C45.2271 25.363 45.6795 25.6545 46.1754 25.8501C46.6713 26.0456 47.201 26.1413 47.7339 26.1317Z" fill="#FFBE9D"/>
<path d="M51.8319 19.1993C50.3292 19.1561 48.8736 18.6656 47.6511 17.7907C47.6511 17.7907 48.5383 20.1798 51.794 20.0417L51.8319 19.1993Z" fill="#EB996E"/>
<path d="M43.6083 9.51875C43.5531 9.49113 41.4057 8.74886 41.3677 10.9757C41.3297 13.2025 43.5738 12.7778 43.5807 12.7019C43.5876 12.6259 43.6083 9.51875 43.6083 9.51875Z" fill="#FFBE9D"/>
<path d="M42.9144 11.8595C42.9144 11.8595 42.8729 11.8871 42.8074 11.9147C42.7143 11.952 42.6104 11.952 42.5174 11.9147C42.3754 11.8205 42.2611 11.6904 42.1859 11.5375C42.1106 11.3847 42.0773 11.2146 42.0893 11.0447C42.0852 10.854 42.1254 10.6649 42.2066 10.4923C42.2278 10.4226 42.2661 10.3593 42.3179 10.308C42.3698 10.2568 42.4336 10.2193 42.5035 10.1989C42.548 10.1877 42.5949 10.1927 42.636 10.2129C42.6771 10.2332 42.7097 10.2673 42.7279 10.3094C42.759 10.3715 42.7452 10.4164 42.7556 10.4198C42.7659 10.4233 42.8039 10.3819 42.7866 10.2921C42.776 10.236 42.7454 10.1857 42.7003 10.1506C42.671 10.1269 42.6374 10.1092 42.6012 10.0985C42.5651 10.0878 42.5272 10.0844 42.4897 10.0884C42.3973 10.1057 42.3109 10.1465 42.2389 10.207C42.1669 10.2675 42.1118 10.3456 42.0789 10.4336C41.98 10.6244 41.9302 10.8368 41.9339 11.0516C41.9192 11.25 41.9634 11.4482 42.0611 11.6215C42.1588 11.7947 42.3055 11.9352 42.4828 12.0252C42.541 12.0413 42.6019 12.0446 42.6615 12.0351C42.721 12.0256 42.7778 12.0034 42.8281 11.97C42.9075 11.9147 42.9213 11.8629 42.9144 11.8595Z" fill="#EB996E"/>
<path d="M53.7584 10.1781C53.7585 10.2988 53.7117 10.4148 53.628 10.5017C53.5443 10.5887 53.4302 10.6397 53.3096 10.6442C53.2505 10.6489 53.1911 10.6418 53.1348 10.6232C53.0786 10.6047 53.0265 10.5751 52.9819 10.5362C52.9372 10.4973 52.9007 10.4498 52.8746 10.3966C52.8484 10.3435 52.8332 10.2856 52.8297 10.2265C52.8296 10.1054 52.8762 9.98905 52.9598 9.90157C53.0434 9.81409 53.1576 9.76228 53.2785 9.75694C53.3378 9.75225 53.3975 9.7595 53.454 9.77826C53.5105 9.79703 53.5627 9.82693 53.6074 9.86619C53.6521 9.90546 53.6885 9.95329 53.7145 10.0069C53.7404 10.0605 53.7553 10.1187 53.7584 10.1781Z" fill="#263238"/>
<path d="M54.3039 9.35646C54.2487 9.4186 53.8965 9.15622 53.3959 9.15622C52.8953 9.15622 52.5294 9.40824 52.4741 9.34955C52.4189 9.29086 52.5052 9.21146 52.6675 9.09407C52.8837 8.94511 53.1402 8.86563 53.4028 8.86621C53.6631 8.86685 53.9166 8.94894 54.1278 9.10098C54.2832 9.21836 54.335 9.31848 54.3039 9.35646Z" fill="#263238"/>
<path d="M48.925 10.2679C48.9269 10.3894 48.8809 10.5068 48.7969 10.5947C48.7129 10.6825 48.5977 10.7338 48.4762 10.7374C48.4171 10.7421 48.3575 10.7349 48.3013 10.7161C48.245 10.6973 48.193 10.6673 48.1486 10.628C48.1041 10.5887 48.068 10.5408 48.0425 10.4873C48.0169 10.4337 48.0024 10.3755 47.9998 10.3163C47.9979 10.1953 48.0434 10.0784 48.1267 9.99065C48.2099 9.90289 48.3243 9.85122 48.4451 9.84672C48.5045 9.84203 48.5642 9.84928 48.6207 9.86805C48.6771 9.88681 48.7293 9.91671 48.774 9.95598C48.8188 9.99525 48.8552 10.0431 48.8811 10.0967C48.907 10.1502 48.922 10.2085 48.925 10.2679Z" fill="#263238"/>
<path d="M49.3877 9.44971C49.329 9.51186 48.9768 9.24947 48.4762 9.25292C47.9756 9.25638 47.6097 9.5015 47.5579 9.44281C47.5061 9.38412 47.589 9.30471 47.7478 9.18733C47.965 9.0381 48.2231 8.95972 48.4866 8.96292C48.7467 8.9609 49.0007 9.04194 49.2116 9.19423C49.3635 9.31852 49.4153 9.4221 49.3877 9.44971Z" fill="#263238"/>
<path d="M51.2036 13.1611C51.4668 13.0781 51.7393 13.0283 52.0149 13.0126C52.1426 13.0126 52.2635 12.9747 52.2876 12.8883C52.2959 12.7561 52.2659 12.6243 52.2013 12.5086L51.8216 11.535C51.2968 10.154 50.917 9.0113 50.9757 8.99058C51.0344 8.96987 51.5005 10.0781 52.0114 11.4625C52.1392 11.8077 52.26 12.1288 52.3567 12.4395C52.4372 12.5946 52.4604 12.7731 52.4223 12.9436C52.4022 12.9877 52.3731 13.0271 52.3368 13.0592C52.3005 13.0913 52.2579 13.1155 52.2117 13.13C52.1418 13.1483 52.0699 13.1576 51.9976 13.1576C51.734 13.1899 51.4675 13.191 51.2036 13.1611Z" fill="#263238"/>
<path d="M49.5154 7.48872C49.467 7.62681 48.9665 7.56122 48.3795 7.63027C47.7926 7.69932 47.3196 7.86158 47.2402 7.74074C47.2057 7.68205 47.2886 7.55431 47.4819 7.42312C47.7362 7.26217 48.0237 7.16112 48.3227 7.12763C48.6218 7.09414 48.9246 7.12907 49.2081 7.22979C49.4291 7.31955 49.5395 7.42312 49.5154 7.48872Z" fill="#263238"/>
<path d="M54.1209 7.90991C54.0346 8.02384 53.6893 7.90991 53.2751 7.90991C52.8608 7.90991 52.5086 7.98587 52.4292 7.86503C52.3912 7.80979 52.4465 7.69587 52.6018 7.58884C52.8095 7.45609 53.0524 7.38903 53.2987 7.39643C53.5451 7.40382 53.7835 7.48531 53.9828 7.63027C54.1036 7.73729 54.1589 7.85468 54.1209 7.90991Z" fill="#263238"/>
<path d="M56.9553 2.75894C56.9781 2.55724 56.9495 2.35306 56.8722 2.16536C56.795 1.97765 56.6715 1.8125 56.5134 1.68524C56.3493 1.56591 56.1481 1.50873 55.9458 1.52391C55.7435 1.53908 55.5531 1.62563 55.4086 1.7681C55.4391 1.63209 55.4406 1.4912 55.4131 1.35456C55.3855 1.21793 55.3296 1.08861 55.2488 0.974995C55.1681 0.861381 55.0644 0.76601 54.9444 0.695069C54.8245 0.624129 54.6909 0.579206 54.5524 0.563212C54.0208 0.528688 53.5685 0.929168 53.0541 1.07072C52.5421 1.17979 52.0085 1.11793 51.535 0.894643C51.0552 0.701308 50.6029 0.435474 50.1161 0.255948C49.0848 -0.123363 47.9455 -0.0796445 46.9463 0.377575C45.9471 0.834795 45.1692 1.66845 44.7821 2.6968C44.4186 2.60716 44.0363 2.63015 43.6861 2.76271C43.3359 2.89527 43.0343 3.13115 42.8212 3.43907C42.4062 4.06898 42.2401 4.83061 42.3551 5.57611C42.4242 6.07534 42.5493 6.5652 42.7279 7.03648C42.7279 7.0779 42.7279 7.11933 42.7279 7.16076C42.7625 8.94911 42.9662 11.0516 43.7292 11.0654C45.0583 11.0861 44.7407 8.57625 44.7407 8.57625C46.3771 7.94446 45.7764 5.4967 46.1769 5.12384C46.5774 4.75098 47.4405 3.88788 50.8584 5.63825C52.1323 6.20619 53.5525 6.35956 54.9184 6.07671L55.0013 6.05944H55.022H55.0496C55.3594 5.9828 55.6553 5.85816 55.9265 5.69004C56.2482 5.50661 56.5024 5.22459 56.6515 4.88563C56.7256 4.71376 56.7474 4.52388 56.7142 4.33969C56.6811 4.1555 56.5944 3.98516 56.4651 3.84991C56.731 3.5416 56.9014 3.1625 56.9553 2.75894Z" fill="#263238"/>
<path d="M51.7249 14.7698C51.2384 14.8892 50.7303 14.8892 50.2438 14.7698C50.7303 14.6505 51.2384 14.6505 51.7249 14.7698Z" fill="#263238"/>
</svg>
