<svg width="16" height="16" viewBox="0 0 16 16" fill="none" xmlns="http://www.w3.org/2000/svg">
<path fill-rule="evenodd" clip-rule="evenodd" d="M8.16632 1.33331C11.199 1.33331 13.6663 3.81931 13.6663 6.87531C13.6663 10.632 9.36232 14.3333 8.16632 14.3333C6.97032 14.3333 2.66632 10.632 2.66632 6.87531C2.66632 3.81931 5.13365 1.33331 8.16632 1.33331ZM8.16632 2.33331C5.68499 2.33331 3.66632 4.37131 3.66632 6.87531C3.66632 10.0613 7.41565 13.1653 8.16632 13.3306C8.91699 13.1646 12.6663 10.0606 12.6663 6.87531C12.6663 4.37131 10.6477 2.33331 8.16632 2.33331ZM8.16699 4.66665C9.36165 4.66665 10.3337 5.63865 10.3337 6.83398C10.3337 8.02865 9.36165 8.99998 8.16699 8.99998C6.97232 8.99998 6.00032 8.02865 6.00032 6.83398C6.00032 5.63865 6.97232 4.66665 8.16699 4.66665ZM8.16699 5.66665C7.52365 5.66665 7.00032 6.18998 7.00032 6.83398C7.00032 7.47731 7.52365 7.99998 8.16699 7.99998C8.81032 7.99998 9.33365 7.47731 9.33365 6.83398C9.33365 6.18998 8.81032 5.66665 8.16699 5.66665Z" fill="black" fill-opacity="0.5"/>
</svg>
