<svg width="32" height="32" viewBox="0 0 32 32" fill="none" xmlns="http://www.w3.org/2000/svg">
<path fill-rule="evenodd" clip-rule="evenodd" d="M13.7657 26.808C14.4564 27.5773 15.343 28 16.263 28H16.2644C17.1884 28 18.079 27.5773 18.771 26.8066C19.1417 26.3973 19.7737 26.364 20.183 26.7333C20.5937 27.1026 20.627 27.736 20.2577 28.1453C19.1804 29.3413 17.763 30 16.2644 30H16.2617C14.767 29.9986 13.3524 29.34 12.279 28.144C11.9097 27.7346 11.943 27.1013 12.3537 26.7333C12.7644 26.3626 13.3964 26.396 13.7657 26.808ZM16.3294 1.33331C22.2561 1.33331 26.2374 5.94931 26.2374 10.26C26.2374 12.4773 26.8014 13.4173 27.4001 14.4146C27.9921 15.3986 28.6628 16.516 28.6628 18.628C28.1974 24.024 22.5641 24.464 16.3294 24.464C10.0948 24.464 4.4601 24.024 4.00008 18.7133C3.9961 16.516 4.66676 15.3986 5.25876 14.4146L5.46776 14.0629C5.98233 13.1785 6.42143 12.2164 6.42143 10.26C6.42143 5.94931 10.4028 1.33331 16.3294 1.33331ZM16.3294 3.33331C11.6694 3.33331 8.42143 6.98398 8.42143 10.26C8.42143 13.032 7.6521 14.3133 6.9721 15.444C6.42676 16.352 5.9961 17.0693 5.9961 18.628C6.21876 21.1426 7.87876 22.464 16.3294 22.464C24.7334 22.464 26.4454 21.084 26.6668 18.5413C26.6628 17.0693 26.2321 16.352 25.6868 15.444C25.0068 14.3133 24.2374 13.032 24.2374 10.26C24.2374 6.98398 20.9894 3.33331 16.3294 3.33331Z" fill="black"/>
</svg>
