<svg width="24" height="24" viewBox="0 0 24 24" fill="none" xmlns="http://www.w3.org/2000/svg">
<path fill-rule="evenodd" clip-rule="evenodd" d="M11.7388 1.99988C17.1088 1.99988 21.4768 6.36788 21.4768 11.7379C21.4768 14.2714 20.5045 16.5822 18.9135 18.3164L22.0442 21.4406C22.3372 21.7336 22.3382 22.2076 22.0452 22.5006C21.8992 22.6486 21.7062 22.7216 21.5142 22.7216C21.3232 22.7216 21.1312 22.6486 20.9842 22.5026L17.8157 19.3429C16.1489 20.6777 14.0355 21.4769 11.7388 21.4769C6.3688 21.4769 1.9998 17.1079 1.9998 11.7379C1.9998 6.36788 6.3688 1.99988 11.7388 1.99988ZM11.7388 3.49988C7.1958 3.49988 3.4998 7.19488 3.4998 11.7379C3.4998 16.2809 7.1958 19.9769 11.7388 19.9769C16.2808 19.9769 19.9768 16.2809 19.9768 11.7379C19.9768 7.19488 16.2808 3.49988 11.7388 3.49988Z" fill="#232323" fill-opacity="0.5"/>
</svg>
