<svg width="295" height="265" viewBox="0 0 295 265" fill="none" xmlns="http://www.w3.org/2000/svg">
<path d="M147.414 265C228.828 265 294.827 226.895 294.827 179.89C294.827 132.886 228.828 94.7809 147.414 94.7809C65.9993 94.7809 0 132.886 0 179.89C0 226.895 65.9993 265 147.414 265Z" fill="#27A798"/>
<path d="M43.1773 240.073C44.2159 240.699 45.2733 241.262 46.3056 241.838L254.715 121.534C253.708 120.909 252.695 120.283 251.65 119.707C250.993 119.332 250.323 118.957 249.654 118.587L41.2314 238.916C41.8759 239.304 42.5203 239.692 43.1773 240.073Z" fill="#FAFAFA"/>
<path opacity="0.1" d="M189.446 143.839C196.136 143.839 201.559 140.708 201.559 136.844C201.559 132.981 196.136 129.85 189.446 129.85C182.756 129.85 177.333 132.981 177.333 136.844C177.333 140.708 182.756 143.839 189.446 143.839Z" fill="black"/>
<path opacity="0.1" d="M137.14 253.794C149.708 253.794 159.896 247.912 159.896 240.655C159.896 233.399 149.708 227.516 137.14 227.516C124.572 227.516 114.384 233.399 114.384 240.655C114.384 247.912 124.572 253.794 137.14 253.794Z" fill="black"/>
<path d="M77.0385 26.0512L73.2845 28.2223C73.2936 28.0556 73.2936 27.8885 73.2845 27.7218V26.6331C73.2845 24.6998 71.9205 23.9115 70.2437 24.8812C69.5243 25.3261 68.9079 25.919 68.4355 26.6206C68.1602 24.1867 66.2519 23.2795 63.9307 24.6185C62.6084 25.4813 61.5081 26.6436 60.7189 28.0111C59.9297 29.3786 59.4739 30.9128 59.3884 32.4894V34.1161C59.3743 34.763 59.5069 35.4047 59.7763 35.9931L56.648 37.795C56.1598 38.1164 55.7535 38.5474 55.4613 39.0536C55.1691 39.5598 54.9991 40.1272 54.9649 40.7106C54.9649 41.7868 55.722 42.2185 56.648 41.6804L77.0385 29.9429C77.5299 29.619 77.9382 29.1841 78.2306 28.6733C78.523 28.1624 78.6911 27.59 78.7215 27.0023C78.7215 25.9511 77.9644 25.5132 77.0385 26.0512Z" fill="#EBEBEB"/>
<path d="M52.2119 16.0781L50.141 16.8727V12.3116C50.141 8.69521 47.2567 7.82553 44.1221 9.63371C40.9937 11.4419 38.4535 15.8403 38.4535 19.4567V20.1199C38.0122 19.9846 37.546 19.9509 37.0899 20.0213C36.6337 20.0918 36.1994 20.2645 35.8195 20.5266C34.6275 21.3046 33.6366 22.3535 32.9276 23.5877C32.2186 24.8219 31.8117 26.2064 31.7401 27.6279V27.9282L28.8495 29.5675C28.0668 30.0774 27.4154 30.7646 26.9479 31.5734C26.4805 32.3821 26.2103 33.2897 26.1591 34.2224C26.1591 35.9368 27.3667 36.6313 28.8495 35.7741L52.2119 22.2847C52.9953 21.7755 53.6473 21.0885 54.1149 20.2796C54.5824 19.4706 54.8522 18.5627 54.9023 17.6297C54.9023 15.9154 53.701 15.2209 52.2119 16.0781Z" fill="#EBEBEB"/>
<path d="M28.5366 188.525C28.4811 188.525 28.4265 188.51 28.3782 188.483C28.3299 188.456 28.2897 188.416 28.2613 188.368C28.2208 188.296 28.2106 188.211 28.2329 188.131C28.2551 188.051 28.3081 187.984 28.3802 187.943L170.682 105.768C170.754 105.727 170.84 105.717 170.919 105.739C170.999 105.761 171.067 105.814 171.107 105.886C171.129 105.922 171.143 105.961 171.148 106.001C171.154 106.042 171.152 106.083 171.141 106.123C171.131 106.163 171.112 106.2 171.087 106.232C171.062 106.265 171.031 106.292 170.995 106.312L28.6743 188.481C28.6328 188.507 28.5854 188.522 28.5366 188.525Z" fill="#FAFAFA"/>
<path d="M30.5075 178.914C30.4392 178.914 30.373 178.891 30.3191 178.849C30.2651 178.807 30.2263 178.749 30.2086 178.683C30.1908 178.617 30.1952 178.547 30.2209 178.484C30.2466 178.42 30.2924 178.367 30.3511 178.333L172.672 96.1636C172.744 96.1222 172.83 96.1109 172.91 96.1319C172.991 96.153 173.06 96.2048 173.103 96.2762C173.144 96.3484 173.154 96.4338 173.132 96.5135C173.11 96.5933 173.057 96.6609 172.984 96.7017L30.6639 178.871C30.6169 178.9 30.5627 178.915 30.5075 178.914Z" fill="#FAFAFA"/>
<path d="M32.4971 169.304C32.4288 169.303 32.3626 169.28 32.3086 169.239C32.2547 169.197 32.2159 169.138 32.1981 169.073C32.1804 169.007 32.1847 168.937 32.2105 168.873C32.2362 168.81 32.2819 168.757 32.3406 168.722L174.667 86.5533C174.703 86.5276 174.743 86.5095 174.786 86.5004C174.829 86.4913 174.873 86.4912 174.916 86.5002C174.959 86.5092 174.999 86.5272 175.035 86.5528C175.07 86.5784 175.1 86.6112 175.122 86.6491C175.144 86.6869 175.158 86.729 175.162 86.7725C175.167 86.816 175.163 86.86 175.149 86.9017C175.136 86.9434 175.114 86.9818 175.085 87.0145C175.056 87.0472 175.02 87.0734 174.98 87.0914L32.6535 169.267C32.6051 169.292 32.5515 169.304 32.4971 169.304Z" fill="#FAFAFA"/>
<path d="M34.4867 159.694C34.4184 159.693 34.3523 159.67 34.2983 159.628C34.2443 159.587 34.2055 159.528 34.1878 159.462C34.1701 159.396 34.1744 159.326 34.2001 159.263C34.2259 159.2 34.2716 159.147 34.3303 159.112L176.657 76.9431C176.693 76.9173 176.733 76.8993 176.776 76.8901C176.819 76.881 176.863 76.8809 176.906 76.8899C176.948 76.899 176.989 76.9169 177.024 76.9425C177.06 76.9682 177.09 77.001 177.112 77.0388C177.134 77.0767 177.147 77.1187 177.152 77.1622C177.157 77.2057 177.152 77.2497 177.139 77.2914C177.126 77.3331 177.104 77.3716 177.075 77.4042C177.046 77.4369 177.01 77.4631 176.97 77.4811L34.6431 159.644C34.5959 159.673 34.5422 159.69 34.4867 159.694Z" fill="#FAFAFA"/>
<path d="M36.4827 150.084C36.4269 150.085 36.3718 150.071 36.3233 150.044C36.2747 150.016 36.2347 149.976 36.2074 149.927C36.1668 149.855 36.1566 149.77 36.1789 149.69C36.2012 149.61 36.2541 149.543 36.3262 149.502L178.647 67.3328C178.682 67.3071 178.723 67.2891 178.765 67.2799C178.808 67.2708 178.853 67.2707 178.895 67.2797C178.938 67.2888 178.979 67.3067 179.014 67.3323C179.05 67.358 179.079 67.3908 179.101 67.4286C179.123 67.4665 179.137 67.5085 179.142 67.552C179.147 67.5955 179.142 67.6395 179.129 67.6812C179.115 67.7229 179.093 67.7613 179.064 67.794C179.035 67.8267 179 67.8529 178.96 67.8709L36.6704 150.046C36.6124 150.075 36.5475 150.088 36.4827 150.084Z" fill="#FAFAFA"/>
<path d="M38.4722 140.48C38.4176 140.479 38.3641 140.465 38.3169 140.437C38.2697 140.41 38.2305 140.37 38.2032 140.323C38.1618 140.251 38.1504 140.165 38.1715 140.084C38.1925 140.004 38.2443 139.934 38.3158 139.891L180.636 57.7225C180.672 57.702 180.712 57.6887 180.752 57.6834C180.793 57.6781 180.835 57.6809 180.875 57.6916C180.914 57.7024 180.952 57.7209 180.984 57.746C181.017 57.7712 181.044 57.8025 181.065 57.8383C181.086 57.874 181.099 57.9135 181.104 57.9543C181.109 57.9952 181.107 58.0368 181.096 58.0765C181.085 58.1163 181.067 58.1536 181.041 58.1863C181.016 58.2189 180.985 58.2463 180.949 58.2669L38.6286 140.436C38.5804 140.462 38.527 140.477 38.4722 140.48Z" fill="#FAFAFA"/>
<path d="M40.4618 130.863C40.4072 130.863 40.3537 130.848 40.3065 130.821C40.2593 130.793 40.2201 130.754 40.1928 130.707C40.1514 130.634 40.1401 130.549 40.1611 130.468C40.1822 130.387 40.234 130.318 40.3054 130.275L182.632 48.1123C182.667 48.0912 182.706 48.0773 182.747 48.0715C182.788 48.0657 182.829 48.0681 182.869 48.0786C182.909 48.0891 182.946 48.1075 182.978 48.1326C183.011 48.1578 183.038 48.1891 183.058 48.2249C183.099 48.2973 183.11 48.3831 183.089 48.4638C183.068 48.5444 183.017 48.6137 182.945 48.6567L40.6183 130.826C40.5709 130.853 40.5165 130.866 40.4618 130.863Z" fill="#FAFAFA"/>
<path d="M42.4515 121.259C42.3969 121.259 42.3433 121.244 42.2961 121.217C42.2489 121.189 42.2098 121.15 42.1825 121.103C42.1411 121.03 42.1297 120.945 42.1508 120.864C42.1718 120.783 42.2236 120.714 42.2951 120.671L184.622 38.5021C184.694 38.4606 184.78 38.4495 184.86 38.4712C184.941 38.4929 185.009 38.5456 185.051 38.6178C185.092 38.69 185.103 38.7757 185.081 38.8561C185.06 38.9364 185.007 39.0049 184.935 39.0464L42.6079 121.215C42.5612 121.245 42.5068 121.26 42.4515 121.259Z" fill="#FAFAFA"/>
<path d="M160.127 114.84H160.058C160.018 114.832 159.98 114.816 159.946 114.792C159.912 114.769 159.884 114.74 159.861 114.705C159.839 114.671 159.824 114.632 159.817 114.592C159.81 114.552 159.811 114.511 159.82 114.471L175.068 41.0986C175.085 41.0156 175.133 40.9426 175.204 40.8957C175.274 40.8488 175.36 40.8317 175.443 40.8483C175.526 40.8649 175.599 40.9138 175.646 40.9842C175.693 41.0546 175.71 41.1407 175.694 41.2237L160.434 114.596C160.418 114.665 160.379 114.727 160.323 114.772C160.267 114.816 160.198 114.84 160.127 114.84Z" fill="#FAFAFA"/>
<path d="M152.5 119.244H152.419C152.379 119.236 152.34 119.22 152.306 119.197C152.272 119.174 152.243 119.145 152.22 119.11C152.198 119.076 152.182 119.038 152.174 118.997C152.166 118.957 152.167 118.916 152.175 118.875L167.435 45.5032C167.453 45.4227 167.501 45.3523 167.57 45.3068C167.639 45.2613 167.723 45.2443 167.804 45.2592C167.844 45.2674 167.882 45.2835 167.917 45.3065C167.951 45.3295 167.98 45.359 168.002 45.3932C168.025 45.4275 168.041 45.4659 168.049 45.5063C168.056 45.5466 168.056 45.5881 168.048 45.6284L152.807 118.975C152.796 119.049 152.76 119.117 152.703 119.167C152.647 119.216 152.575 119.244 152.5 119.244Z" fill="#FAFAFA"/>
<path d="M144.873 123.649H144.811C144.73 123.63 144.659 123.58 144.614 123.51C144.568 123.44 144.552 123.356 144.567 123.274L159.82 49.9017C159.829 49.8614 159.845 49.8232 159.868 49.7891C159.891 49.7551 159.92 49.7259 159.955 49.7032C159.989 49.6806 160.027 49.6649 160.068 49.6571C160.108 49.6493 160.149 49.6495 160.19 49.6577C160.271 49.6771 160.341 49.7269 160.386 49.7968C160.432 49.8666 160.449 49.9512 160.434 50.0331L145.18 123.399C145.165 123.47 145.127 123.533 145.071 123.579C145.015 123.624 144.945 123.649 144.873 123.649Z" fill="#FAFAFA"/>
<path d="M137.253 128.048H137.19C137.15 128.039 137.112 128.023 137.078 128C137.043 127.977 137.014 127.948 136.992 127.914C136.969 127.879 136.953 127.841 136.945 127.801C136.938 127.76 136.938 127.719 136.946 127.678L152.194 54.3127C152.212 54.2322 152.26 54.1618 152.329 54.1163C152.398 54.0708 152.482 54.0537 152.563 54.0687C152.603 54.0769 152.641 54.093 152.675 54.1159C152.709 54.1389 152.739 54.1684 152.761 54.2027C152.784 54.237 152.8 54.2754 152.807 54.3157C152.815 54.3561 152.815 54.3976 152.807 54.4378L137.559 127.797C137.545 127.868 137.506 127.932 137.451 127.977C137.395 128.023 137.325 128.048 137.253 128.048Z" fill="#FAFAFA"/>
<path d="M129.626 132.452H129.563C129.483 132.434 129.412 132.386 129.367 132.317C129.321 132.248 129.304 132.164 129.319 132.083L144.567 58.7111C144.576 58.6707 144.592 58.6326 144.616 58.5987C144.64 58.5649 144.67 58.5361 144.705 58.514C144.74 58.4919 144.779 58.4769 144.819 58.4699C144.86 58.463 144.902 58.4641 144.942 58.4733C144.982 58.4815 145.02 58.4976 145.054 58.5207C145.088 58.5438 145.117 58.5734 145.139 58.6078C145.161 58.6422 145.176 58.6807 145.183 58.721C145.19 58.7613 145.189 58.8026 145.18 58.8425L129.932 132.202C129.917 132.272 129.878 132.335 129.823 132.38C129.767 132.426 129.698 132.451 129.626 132.452Z" fill="#FAFAFA"/>
<path d="M122.005 136.851H121.936C121.896 136.843 121.858 136.826 121.824 136.803C121.791 136.78 121.762 136.751 121.74 136.716C121.717 136.682 121.702 136.643 121.695 136.603C121.688 136.563 121.689 136.521 121.699 136.482L136.946 63.1158C136.954 63.0755 136.97 63.0372 136.993 63.0032C137.016 62.9691 137.046 62.9399 137.08 62.9173C137.114 62.8946 137.153 62.8789 137.193 62.8711C137.233 62.8633 137.275 62.8635 137.315 62.8718C137.396 62.8898 137.466 62.9383 137.512 63.0072C137.557 63.076 137.574 63.1598 137.559 63.2409L122.312 136.6C122.297 136.671 122.259 136.735 122.203 136.78C122.147 136.826 122.077 136.851 122.005 136.851Z" fill="#FAFAFA"/>
<path d="M114.378 141.255H114.316C114.275 141.247 114.237 141.231 114.203 141.208C114.169 141.185 114.14 141.156 114.117 141.121C114.095 141.087 114.079 141.049 114.071 141.008C114.063 140.968 114.063 140.927 114.072 140.886L129.319 67.5205C129.327 67.4795 129.344 67.4404 129.367 67.4056C129.39 67.3708 129.42 67.3409 129.455 67.3177C129.49 67.2944 129.529 67.2783 129.57 67.2701C129.611 67.262 129.653 67.2621 129.695 67.2703C129.736 67.2785 129.775 67.2947 129.81 67.318C129.844 67.3413 129.874 67.3713 129.897 67.4061C129.921 67.441 129.937 67.4801 129.945 67.5212C129.953 67.5623 129.953 67.6046 129.945 67.6457L114.685 141.005C114.67 141.076 114.632 141.139 114.576 141.185C114.52 141.231 114.45 141.255 114.378 141.255Z" fill="#FAFAFA"/>
<path d="M106.745 145.654H106.683C106.642 145.646 106.604 145.63 106.57 145.607C106.536 145.584 106.507 145.554 106.484 145.52C106.461 145.486 106.446 145.447 106.438 145.407C106.43 145.367 106.43 145.325 106.439 145.285L121.699 71.9127C121.707 71.8724 121.723 71.8342 121.746 71.8001C121.769 71.7661 121.798 71.7369 121.833 71.7142C121.867 71.6916 121.905 71.6759 121.946 71.6681C121.986 71.6603 122.027 71.6605 122.068 71.6687C122.148 71.6867 122.219 71.7353 122.264 71.8041C122.31 71.8729 122.327 71.9567 122.312 72.0378L107.058 145.404C107.044 145.476 107.005 145.541 106.948 145.587C106.891 145.633 106.819 145.657 106.745 145.654Z" fill="#FAFAFA"/>
<path d="M99.1307 150.059H99.0681C99.0278 150.05 98.9896 150.034 98.9555 150.011C98.9215 149.988 98.8923 149.959 98.8696 149.925C98.8469 149.89 98.8313 149.852 98.8235 149.812C98.8156 149.771 98.8159 149.73 98.8241 149.689L114.072 76.3237C114.088 76.2407 114.137 76.1677 114.207 76.1208C114.278 76.0738 114.364 76.0568 114.447 76.0734C114.53 76.09 114.603 76.1389 114.65 76.2093C114.697 76.2797 114.714 76.3658 114.697 76.4488L99.4372 149.808C99.4228 149.879 99.3844 149.942 99.3285 149.988C99.2727 150.034 99.2028 150.059 99.1307 150.059Z" fill="#FAFAFA"/>
<path d="M91.5038 154.457H91.4412C91.401 154.449 91.3627 154.433 91.3287 154.41C91.2946 154.387 91.2654 154.357 91.2428 154.323C91.2201 154.289 91.2044 154.25 91.1966 154.21C91.1888 154.17 91.189 154.128 91.1972 154.088L106.445 80.7221C106.464 80.6411 106.514 80.5706 106.584 80.5253C106.654 80.4799 106.738 80.463 106.82 80.4781C106.86 80.4862 106.898 80.5023 106.932 80.5254C106.966 80.5485 106.995 80.5781 107.017 80.6125C107.039 80.6469 107.054 80.6854 107.061 80.7257C107.068 80.766 107.067 80.8074 107.058 80.8472L91.8104 154.213C91.7958 154.283 91.7571 154.346 91.7012 154.39C91.6452 154.435 91.5753 154.459 91.5038 154.457Z" fill="#FAFAFA"/>
<path d="M83.8832 158.862H83.8143C83.7742 158.854 83.7362 158.838 83.7024 158.814C83.6686 158.791 83.6398 158.762 83.6176 158.727C83.5955 158.693 83.5804 158.654 83.5734 158.614C83.5663 158.574 83.5674 158.533 83.5766 158.493L98.8241 85.1269C98.8315 85.0862 98.8471 85.0475 98.8699 85.013C98.8926 84.9785 98.9222 84.9489 98.9566 84.9261C98.9911 84.9033 99.0299 84.8878 99.0705 84.8803C99.1112 84.8729 99.1529 84.8737 99.1932 84.8828C99.2737 84.9009 99.3441 84.9494 99.3896 85.0182C99.4351 85.0871 99.4522 85.1709 99.4373 85.252L84.221 158.612C84.2059 158.688 84.1629 158.756 84.1004 158.802C84.0379 158.848 83.9605 158.869 83.8832 158.862Z" fill="#FAFAFA"/>
<path d="M76.2563 163.266H76.1937C76.1531 163.259 76.1143 163.243 76.0798 163.221C76.0453 163.198 76.0158 163.168 75.993 163.134C75.9702 163.099 75.9546 163.061 75.9472 163.02C75.9398 162.979 75.9406 162.938 75.9497 162.897L91.1973 89.5315C91.2059 89.4905 91.2225 89.4515 91.2462 89.4168C91.2699 89.3822 91.3002 89.3525 91.3353 89.3296C91.3705 89.3066 91.4098 89.2908 91.4511 89.2831C91.4923 89.2753 91.5347 89.2758 91.5758 89.2844C91.6169 89.293 91.6559 89.3097 91.6905 89.3334C91.7252 89.357 91.7548 89.3873 91.7778 89.4225C91.8007 89.4576 91.8165 89.497 91.8242 89.5382C91.832 89.5795 91.8315 89.6218 91.8229 89.6629L76.5629 163.016C76.5474 163.086 76.5087 163.149 76.4531 163.195C76.3975 163.24 76.3281 163.265 76.2563 163.266Z" fill="#FAFAFA"/>
<path d="M76.2563 130.982H76.1937C76.1534 130.974 76.1152 130.958 76.0811 130.935C76.0471 130.912 76.0179 130.882 75.9952 130.848C75.9726 130.814 75.9569 130.775 75.9491 130.735C75.9413 130.695 75.9415 130.653 75.9497 130.613L83.5953 93.9487C83.6036 93.9085 83.6196 93.8702 83.6426 93.8362C83.6656 93.8021 83.6951 93.7729 83.7294 93.7503C83.7636 93.7276 83.8021 93.7119 83.8424 93.7041C83.8827 93.6963 83.9242 93.6965 83.9645 93.7047C84.045 93.7228 84.1154 93.7713 84.1609 93.8401C84.2064 93.909 84.2234 93.9927 84.2085 94.0739L76.5816 130.757C76.5616 130.826 76.5184 130.886 76.4591 130.927C76.3998 130.968 76.3281 130.988 76.2563 130.982Z" fill="#FAFAFA"/>
<path d="M181.825 115.616C181.743 115.606 181.668 115.565 181.617 115.5C181.565 115.436 181.541 115.354 181.55 115.271L194.063 1.00581C194.071 0.934845 194.102 0.868543 194.152 0.817502C194.202 0.766461 194.268 0.733627 194.339 0.724255C194.421 0.73369 194.495 0.775155 194.547 0.839613C194.599 0.90407 194.623 0.986295 194.614 1.06837L182.1 115.334C182.094 115.405 182.063 115.472 182.013 115.524C181.963 115.575 181.896 115.607 181.825 115.616Z" fill="#FAFAFA"/>
<path d="M190.622 120.708C190.581 120.705 190.541 120.694 190.504 120.675C190.467 120.657 190.435 120.631 190.408 120.599C190.381 120.568 190.361 120.532 190.348 120.492C190.336 120.453 190.331 120.412 190.334 120.371L199.719 3.45214C199.722 3.41101 199.734 3.37091 199.752 3.33415C199.771 3.29739 199.797 3.2647 199.828 3.23795C199.86 3.2112 199.896 3.19092 199.935 3.17829C199.975 3.16566 200.016 3.16091 200.057 3.16434C200.098 3.16749 200.138 3.17875 200.175 3.19747C200.212 3.21619 200.245 3.24199 200.271 3.27339C200.298 3.30479 200.318 3.34117 200.331 3.38044C200.344 3.41971 200.348 3.46109 200.345 3.50219L190.96 120.421C190.958 120.462 190.947 120.503 190.928 120.54C190.91 120.577 190.884 120.61 190.853 120.637C190.821 120.664 190.784 120.684 190.745 120.696C190.705 120.709 190.663 120.713 190.622 120.708Z" fill="#FAFAFA"/>
<path d="M199.344 125.57C199.303 125.568 199.263 125.557 199.225 125.539C199.188 125.521 199.155 125.496 199.128 125.465C199.101 125.434 199.08 125.399 199.066 125.36C199.053 125.321 199.047 125.279 199.05 125.238L205.338 6.0612C205.339 6.02011 205.349 5.97974 205.366 5.9424C205.384 5.90506 205.408 5.87148 205.438 5.84358C205.468 5.81569 205.504 5.79403 205.542 5.77984C205.581 5.76565 205.622 5.75921 205.663 5.76088C205.747 5.76573 205.825 5.80321 205.881 5.86524C205.937 5.92726 205.967 6.00888 205.963 6.09249L199.65 125.276C199.647 125.355 199.613 125.43 199.556 125.485C199.499 125.539 199.423 125.57 199.344 125.57Z" fill="#FAFAFA"/>
<path d="M208.416 130.982C208.375 130.981 208.335 130.972 208.298 130.956C208.26 130.939 208.227 130.915 208.199 130.886C208.171 130.856 208.149 130.821 208.135 130.783C208.12 130.744 208.114 130.704 208.116 130.663L211.013 8.6577C211.013 8.61661 211.022 8.57609 211.039 8.53845C211.055 8.5008 211.079 8.46678 211.109 8.43831C211.138 8.40984 211.173 8.38748 211.211 8.37252C211.25 8.35756 211.291 8.35029 211.332 8.35112C211.414 8.35584 211.491 8.39135 211.548 8.45052C211.604 8.50969 211.637 8.58817 211.638 8.67021L208.729 130.675C208.727 130.757 208.694 130.835 208.635 130.893C208.577 130.95 208.498 130.982 208.416 130.982Z" fill="#FAFAFA"/>
<path d="M216.969 135.8C216.886 135.8 216.806 135.767 216.748 135.708C216.689 135.649 216.656 135.57 216.656 135.487V11.2792C216.656 11.1963 216.689 11.1167 216.748 11.058C216.806 10.9994 216.886 10.9664 216.969 10.9664C217.052 10.9664 217.131 10.9994 217.19 11.058C217.249 11.1167 217.282 11.1963 217.282 11.2792V135.487C217.282 135.57 217.249 135.649 217.19 135.708C217.131 135.767 217.052 135.8 216.969 135.8Z" fill="#FAFAFA"/>
<path d="M216.969 132.99C216.914 132.991 216.86 132.976 216.813 132.947L170.682 106.312C170.646 106.292 170.615 106.265 170.59 106.232C170.565 106.2 170.546 106.163 170.536 106.123C170.525 106.083 170.523 106.042 170.529 106.001C170.534 105.961 170.548 105.922 170.569 105.886C170.611 105.816 170.679 105.764 170.758 105.741C170.838 105.719 170.922 105.729 170.995 105.768L217.125 132.402C217.187 132.436 217.236 132.489 217.264 132.553C217.292 132.618 217.297 132.69 217.279 132.758C217.261 132.826 217.221 132.886 217.164 132.928C217.108 132.97 217.039 132.992 216.969 132.99Z" fill="#FAFAFA"/>
<path d="M216.969 121.954C216.916 121.955 216.863 121.939 216.819 121.91L172.678 96.7016C172.642 96.6821 172.61 96.6554 172.584 96.6232C172.558 96.591 172.539 96.5539 172.528 96.5142C172.517 96.4745 172.514 96.4329 172.519 96.392C172.525 96.3511 172.538 96.3117 172.559 96.2762C172.601 96.2053 172.669 96.1534 172.748 96.1312C172.827 96.1091 172.912 96.1184 172.984 96.1573L217.125 121.365C217.198 121.407 217.251 121.476 217.273 121.557C217.295 121.638 217.285 121.724 217.244 121.797C217.216 121.845 217.176 121.885 217.128 121.913C217.079 121.94 217.025 121.954 216.969 121.954Z" fill="#FAFAFA"/>
<path d="M216.969 110.917C216.916 110.917 216.864 110.902 216.819 110.873L174.668 87.0977C174.629 87.0789 174.595 87.0525 174.568 87.0201C174.54 86.9878 174.52 86.9501 174.507 86.9095C174.494 86.8689 174.49 86.8261 174.495 86.7838C174.499 86.7415 174.512 86.7006 174.533 86.6636C174.554 86.6265 174.582 86.5941 174.616 86.5683C174.65 86.5425 174.689 86.5239 174.73 86.5136C174.771 86.5033 174.814 86.5015 174.856 86.5083C174.898 86.5151 174.938 86.5305 174.974 86.5533L217.125 110.329C217.197 110.369 217.25 110.437 217.273 110.517C217.295 110.597 217.285 110.682 217.244 110.754C217.218 110.804 217.178 110.846 217.129 110.874C217.081 110.903 217.025 110.918 216.969 110.917Z" fill="#FAFAFA"/>
<path d="M216.969 99.88C216.917 99.8795 216.865 99.8667 216.819 99.8425L176.663 77.4874C176.59 77.4475 176.536 77.3803 176.513 77.3006C176.489 77.2208 176.498 77.1349 176.538 77.0619C176.578 76.9889 176.645 76.9347 176.725 76.9112C176.805 76.8878 176.891 76.8969 176.964 76.9368L217.125 99.2919C217.197 99.3326 217.25 99.4003 217.273 99.48C217.295 99.5598 217.285 99.6451 217.244 99.7173C217.218 99.7672 217.178 99.8087 217.129 99.8374C217.081 99.8661 217.025 99.8808 216.969 99.88Z" fill="#FAFAFA"/>
<path d="M216.969 88.8433C216.917 88.8428 216.865 88.8299 216.819 88.8058L178.653 67.8772C178.58 67.8373 178.526 67.7701 178.502 67.6904C178.479 67.6106 178.488 67.5247 178.528 67.4517C178.568 67.3787 178.635 67.3245 178.715 67.301C178.795 67.2776 178.88 67.2868 178.953 67.3266L217.119 88.2552C217.181 88.2883 217.229 88.341 217.257 88.4049C217.285 88.4688 217.291 88.5403 217.274 88.6079C217.256 88.6755 217.217 88.7354 217.162 88.778C217.107 88.8207 217.039 88.8436 216.969 88.8433Z" fill="#FAFAFA"/>
<path d="M216.969 77.8065C216.918 77.8068 216.869 77.7939 216.825 77.769L180.649 58.2857C180.612 58.2672 180.58 58.2416 180.553 58.2103C180.527 58.1791 180.507 58.1429 180.495 58.1038C180.483 58.0647 180.478 58.0236 180.482 57.9828C180.486 57.9421 180.498 57.9025 180.518 57.8665C180.537 57.8297 180.563 57.7971 180.595 57.7706C180.626 57.744 180.663 57.7241 180.703 57.7119C180.742 57.6996 180.784 57.6954 180.825 57.6994C180.866 57.7034 180.906 57.7155 180.943 57.7351L217.119 77.2371C217.155 77.2568 217.187 77.2834 217.213 77.3155C217.239 77.3475 217.258 77.3843 217.27 77.4239C217.282 77.4634 217.285 77.5048 217.281 77.5458C217.277 77.5868 217.264 77.6265 217.244 77.6626C217.215 77.7089 217.175 77.7467 217.126 77.772C217.078 77.7973 217.023 77.8092 216.969 77.8065Z" fill="#FAFAFA"/>
<path d="M216.969 66.7698C216.919 66.7701 216.869 66.7571 216.825 66.7322L182.639 48.6629C182.567 48.622 182.513 48.5552 182.489 48.4762C182.464 48.3972 182.471 48.3118 182.507 48.2375C182.547 48.1644 182.614 48.1098 182.693 48.0853C182.773 48.0608 182.859 48.0682 182.933 48.1061L217.119 66.1816C217.18 66.2148 217.229 66.2675 217.257 66.3314C217.285 66.3953 217.291 66.4667 217.274 66.5343C217.256 66.6019 217.217 66.6618 217.162 66.7045C217.107 66.7471 217.039 66.7701 216.969 66.7698Z" fill="#FAFAFA"/>
<path d="M216.969 55.7329C216.921 55.7411 216.873 55.7411 216.825 55.7329L184.634 39.0839C184.561 39.0464 184.505 38.9813 184.479 38.9027C184.453 38.8242 184.46 38.7386 184.497 38.6647C184.535 38.5906 184.602 38.5347 184.681 38.5089C184.761 38.4832 184.847 38.4897 184.922 38.5271L217.113 55.1573C217.15 55.1753 217.183 55.2005 217.21 55.2315C217.237 55.2624 217.258 55.2986 217.271 55.3377C217.283 55.3768 217.288 55.4181 217.285 55.4592C217.281 55.5002 217.27 55.5401 217.25 55.5765C217.222 55.6252 217.18 55.6654 217.131 55.6929C217.081 55.7204 217.025 55.7342 216.969 55.7329Z" fill="#FAFAFA"/>
<path d="M216.969 44.6962C216.924 44.7079 216.876 44.7079 216.831 44.6962L186.63 29.4424C186.593 29.4245 186.56 29.3993 186.533 29.3683C186.506 29.3373 186.485 29.3012 186.472 29.2621C186.46 29.2229 186.455 29.1816 186.458 29.1406C186.462 29.0996 186.473 29.0596 186.493 29.0232C186.53 28.9495 186.595 28.8937 186.674 28.8679C186.752 28.8421 186.838 28.8485 186.912 28.8856L217.113 44.1081C217.186 44.1456 217.242 44.2107 217.268 44.2893C217.294 44.3678 217.288 44.4534 217.25 44.5273C217.224 44.5788 217.183 44.6218 217.134 44.6516C217.084 44.6815 217.027 44.6969 216.969 44.6962Z" fill="#FAFAFA"/>
<path d="M216.969 33.6594C216.924 33.671 216.876 33.671 216.831 33.6594L188.62 19.8947C188.546 19.8571 188.49 19.7923 188.463 19.7141C188.436 19.6359 188.441 19.5504 188.476 19.4755C188.514 19.4019 188.578 19.3457 188.657 19.3189C188.735 19.292 188.82 19.2966 188.895 19.3316L217.107 33.0963C217.143 33.1136 217.176 33.1382 217.204 33.1685C217.231 33.1987 217.252 33.2341 217.265 33.2726C217.278 33.311 217.284 33.3517 217.282 33.3924C217.279 33.433 217.269 33.4727 217.25 33.5092C217.222 33.5582 217.181 33.5982 217.131 33.6248C217.081 33.6513 217.025 33.6633 216.969 33.6594Z" fill="#FAFAFA"/>
<path d="M216.969 22.6226C216.934 22.6282 216.898 22.6282 216.863 22.6226L190.616 10.2281C190.541 10.1916 190.484 10.1274 190.456 10.0491C190.427 9.97075 190.431 9.88459 190.466 9.80893C190.484 9.77191 190.509 9.7388 190.54 9.71152C190.57 9.68424 190.606 9.66331 190.645 9.64994C190.684 9.63657 190.726 9.63102 190.767 9.63361C190.808 9.6362 190.848 9.64688 190.885 9.66503L217.107 22.0282C217.19 22.0465 217.262 22.0969 217.308 22.1685C217.353 22.2401 217.369 22.3269 217.351 22.4099C217.332 22.4928 217.282 22.5652 217.21 22.6109C217.139 22.6567 217.052 22.6721 216.969 22.6539V22.6226Z" fill="#FAFAFA"/>
<path d="M216.969 11.5921C216.928 11.6007 216.885 11.6007 216.844 11.5921L192.612 0.624132C192.568 0.610807 192.528 0.588372 192.494 0.558323C192.46 0.528274 192.433 0.491305 192.414 0.449887C192.396 0.408468 192.386 0.363554 192.386 0.318146C192.386 0.272738 192.396 0.22788 192.415 0.186573C192.434 0.145265 192.461 0.10846 192.496 0.0786136C192.53 0.0487668 192.57 0.0265668 192.614 0.0134987C192.657 0.000430697 192.703 -0.00320426 192.748 0.00283482C192.793 0.00887391 192.836 0.0244467 192.875 0.0485169L217.1 10.9914C217.183 11.0089 217.256 11.0585 217.302 11.1295C217.349 11.2005 217.365 11.287 217.348 11.37C217.33 11.4529 217.28 11.5256 217.209 11.5719C217.138 11.6183 217.052 11.6345 216.969 11.6171V11.5921Z" fill="#FAFAFA"/>
<path d="M218.583 13.8632C218.583 13.5037 218.489 13.1506 218.309 12.8393C218.129 12.528 217.87 12.2696 217.559 12.09C217.247 11.9105 216.894 11.8162 216.535 11.8167C216.175 11.8171 215.822 11.9123 215.511 12.0926L215.123 12.3178L74.2103 93.6797C74.0263 93.8086 73.8804 93.9847 73.7879 94.1894C73.6955 94.3942 73.6598 94.6201 73.6848 94.8434V216.617C73.7041 216.841 73.7834 217.056 73.9145 217.239C74.0455 217.421 74.2233 217.565 74.4293 217.656C74.9853 217.94 75.6007 218.088 76.225 218.088C76.8493 218.088 77.4647 217.94 78.0206 217.656C78.2266 217.565 78.4045 217.421 78.5355 217.239C78.6665 217.056 78.7459 216.841 78.7652 216.617V96.9144L213.496 19.1501V135.925C213.516 136.149 213.595 136.363 213.726 136.546C213.857 136.729 214.035 136.873 214.241 136.963C214.798 137.247 215.414 137.395 216.04 137.395C216.665 137.395 217.281 137.247 217.839 136.963C218.045 136.873 218.222 136.729 218.353 136.546C218.484 136.363 218.564 136.149 218.583 135.925V13.8632Z" fill="#27A798"/>
<path d="M78.271 93.6734L52.9877 82.1174C52.7345 81.9962 52.458 81.9313 52.1772 81.9272C51.8965 81.923 51.6182 81.9796 51.3614 82.0931C51.1046 82.2067 50.8755 82.3744 50.6896 82.5849C50.5038 82.7953 50.3657 83.0435 50.2849 83.3124L28.1112 190.17C28.1078 190.218 28.1078 190.266 28.1112 190.314C28.1253 190.503 28.1858 190.685 28.2873 190.844C28.3888 191.003 28.5282 191.135 28.6931 191.228C28.7665 191.278 28.8439 191.322 28.9246 191.359C29.461 191.624 30.0531 191.757 30.6514 191.747C31.9528 191.747 33.0289 191.19 33.1541 190.495L54.408 88.3177L75.7308 98.0656L78.271 93.6734Z" fill="#27A798"/>
<path d="M217.357 12.0238L193.356 1.05587C193.102 0.934926 192.825 0.870542 192.543 0.867155C192.262 0.863768 191.983 0.921459 191.726 1.03625C191.469 1.15104 191.24 1.3202 191.055 1.53206C190.87 1.74392 190.733 1.99344 190.653 2.26341L168.48 109.102C168.476 109.15 168.476 109.198 168.48 109.246C168.494 109.435 168.554 109.617 168.656 109.776C168.757 109.936 168.897 110.067 169.062 110.16C169.135 110.21 169.212 110.254 169.293 110.291C169.83 110.556 170.422 110.689 171.02 110.679C172.321 110.679 173.397 110.122 173.523 109.428L194.777 7.26875L216.099 16.9916L217.357 12.0238Z" fill="#27A798"/>
<path opacity="0.8" d="M217.251 11.9863L193.356 1.05587C193.102 0.934926 192.825 0.870542 192.543 0.867155C192.262 0.863768 191.983 0.921459 191.726 1.03625C191.469 1.15104 191.24 1.3202 191.055 1.53206C190.87 1.74392 190.733 1.99344 190.653 2.26341L184.941 29.7928L76.0248 92.6474L52.9877 82.1174C52.7345 81.9962 52.458 81.9314 52.1772 81.9272C51.8965 81.923 51.6182 81.9796 51.3614 82.0931C51.1046 82.2067 50.8755 82.3744 50.6896 82.5849C50.5038 82.7954 50.3657 83.0435 50.2849 83.3124L28.1112 190.17C28.1078 190.218 28.1078 190.266 28.1112 190.314C28.1253 190.503 28.1858 190.685 28.2873 190.844C28.3888 191.003 28.5282 191.135 28.6931 191.228C28.7665 191.278 28.8439 191.322 28.9246 191.359C29.461 191.624 30.0531 191.757 30.6514 191.747C31.9528 191.747 33.0289 191.19 33.1541 190.496L54.408 88.3177L73.7099 97.1397V216.617C73.7292 216.841 73.8085 217.056 73.9396 217.239C74.0706 217.421 74.2484 217.566 74.4544 217.656C75.0104 217.94 75.6258 218.088 76.2501 218.088C76.8744 218.088 77.4898 217.94 78.0457 217.656C78.2517 217.566 78.4296 217.421 78.5606 217.239C78.6916 217.056 78.771 216.841 78.7903 216.617V96.9144L183.558 36.4374L168.48 109.102C168.476 109.15 168.476 109.198 168.48 109.246C168.494 109.435 168.554 109.617 168.656 109.776C168.757 109.936 168.897 110.067 169.062 110.16C169.135 110.21 169.212 110.254 169.293 110.291C169.83 110.556 170.422 110.689 171.02 110.679C172.321 110.679 173.397 110.122 173.523 109.428L189.396 33.0963L213.484 19.1877V135.925C213.503 136.149 213.583 136.364 213.714 136.546C213.845 136.729 214.023 136.873 214.229 136.963C214.786 137.247 215.402 137.395 216.027 137.395C216.653 137.395 217.269 137.247 217.826 136.963C218.032 136.873 218.21 136.729 218.341 136.546C218.472 136.364 218.551 136.149 218.571 135.925V13.8633C218.566 13.4537 218.437 13.0551 218.202 12.72C217.966 12.3849 217.634 12.1291 217.251 11.9863ZM194.777 7.26875L211.044 14.7017L190.797 26.3766L194.777 7.26875Z" fill="white"/>
<path opacity="0.1" d="M54.408 88.3302L51.0732 86.8036L54.1702 89.4815L54.408 88.3302Z" fill="black"/>
<path opacity="0.1" d="M194.776 7.26872L191.435 5.74209L194.539 8.41995L194.776 7.26872Z" fill="black"/>
<path d="M51.9867 83.5251H51.9491C51.8671 83.5157 51.7922 83.4742 51.7406 83.4098C51.689 83.3453 51.665 83.2631 51.6738 83.181L51.7114 82.8557L51.8428 82.7743L193.563 0.949528C193.636 0.910303 193.722 0.900765 193.802 0.922882C193.883 0.944999 193.951 0.997084 193.994 1.0684C194.033 1.14096 194.043 1.22574 194.021 1.30503C193.998 1.38432 193.946 1.45197 193.876 1.49386L52.312 83.2373C52.3056 83.3181 52.2681 83.3932 52.2074 83.4469C52.1468 83.5006 52.0676 83.5286 51.9867 83.5251Z" fill="#FAFAFA"/>
<path d="M57.6615 85.959C57.5932 85.9583 57.527 85.9353 57.473 85.8934C57.4191 85.8516 57.3803 85.7933 57.3625 85.7274C57.3448 85.6614 57.3491 85.5915 57.3749 85.5283C57.4006 85.465 57.4463 85.4119 57.505 85.3771L199.225 3.55229C199.26 3.53113 199.299 3.51724 199.34 3.51145C199.38 3.50566 199.422 3.50809 199.462 3.51859C199.501 3.52909 199.538 3.54746 199.571 3.57259C199.603 3.59773 199.63 3.62912 199.65 3.66492C199.692 3.73732 199.703 3.82304 199.682 3.90372C199.661 3.98441 199.609 4.05365 199.538 4.09663L57.8179 85.9152C57.7712 85.9448 57.7168 85.9601 57.6615 85.959Z" fill="#FAFAFA"/>
<path d="M63.3238 88.5617C63.2692 88.5614 63.2156 88.5468 63.1684 88.5193C63.1212 88.4919 63.082 88.4526 63.0547 88.4053C63.0134 88.3329 63.002 88.2472 63.0231 88.1665C63.0441 88.0858 63.0959 88.0165 63.1674 87.9736L204.887 6.15502C204.923 6.12927 204.963 6.11124 205.006 6.10209C205.049 6.09295 205.093 6.09288 205.136 6.10191C205.179 6.11093 205.219 6.12885 205.255 6.15449C205.29 6.18014 205.32 6.21294 205.342 6.25078C205.364 6.28863 205.378 6.33066 205.382 6.37418C205.387 6.4177 205.383 6.46172 205.369 6.50341C205.356 6.5451 205.334 6.58352 205.305 6.61619C205.276 6.64887 205.24 6.67507 205.2 6.69309L63.4802 88.5179C63.4323 88.5448 63.3787 88.5598 63.3238 88.5617Z" fill="#FAFAFA"/>
<path d="M68.986 91.1582C68.9178 91.1575 68.8516 91.1345 68.7976 91.0927C68.7436 91.0509 68.7048 90.9926 68.6871 90.9266C68.6694 90.8607 68.6737 90.7908 68.6995 90.7275C68.7252 90.6643 68.7709 90.6112 68.8296 90.5764L210.55 8.75781C210.62 8.72592 210.7 8.72134 210.774 8.74495C210.848 8.76856 210.91 8.8187 210.949 8.88565C210.988 8.9526 211.001 9.03161 210.985 9.10739C210.969 9.18317 210.925 9.25034 210.862 9.29589L69.1424 91.1207C69.0941 91.1456 69.0404 91.1585 68.986 91.1582Z" fill="#FAFAFA"/>
<path d="M74.6484 93.761C74.5801 93.7603 74.5139 93.7373 74.4599 93.6955C74.406 93.6537 74.3672 93.5953 74.3494 93.5294C74.3317 93.4635 74.336 93.3936 74.3618 93.3303C74.3875 93.2671 74.4332 93.214 74.4919 93.1791L216.237 11.3606C216.272 11.3397 216.312 11.3261 216.353 11.3208C216.394 11.3154 216.435 11.3184 216.475 11.3295C216.515 11.3406 216.552 11.3596 216.584 11.3854C216.616 11.4111 216.643 11.4431 216.662 11.4795C216.703 11.5509 216.715 11.6357 216.694 11.7153C216.672 11.795 216.621 11.8631 216.55 11.9049L74.8361 93.7172C74.7802 93.7525 74.7141 93.7679 74.6484 93.761Z" fill="#FAFAFA"/>
<path d="M208.41 16.5286C208.368 16.5369 208.326 16.5369 208.285 16.5286L185.41 6.23013C185.34 6.193 185.286 6.13041 185.26 6.05511C185.234 5.97981 185.238 5.89746 185.271 5.82486C185.304 5.75226 185.363 5.69487 185.436 5.66438C185.51 5.63389 185.592 5.6326 185.667 5.66077L208.541 15.9342C208.624 15.9517 208.697 16.0013 208.743 16.0723C208.789 16.1433 208.806 16.2298 208.788 16.3128C208.771 16.3957 208.721 16.4684 208.65 16.5147C208.579 16.5611 208.493 16.5773 208.41 16.5599V16.5286Z" fill="#FAFAFA"/>
<path d="M200.789 20.9333C200.746 20.9422 200.701 20.9422 200.658 20.9333L177.783 10.6348C177.746 10.6176 177.712 10.5931 177.684 10.5629C177.657 10.5326 177.635 10.4972 177.621 10.4585C177.606 10.4199 177.6 10.3788 177.601 10.3377C177.603 10.2965 177.613 10.2561 177.63 10.2187C177.647 10.1814 177.672 10.1477 177.702 10.1198C177.732 10.0919 177.768 10.0702 177.806 10.0559C177.845 10.0417 177.886 10.0352 177.927 10.0368C177.968 10.0385 178.009 10.0482 178.046 10.0655L200.914 20.3327C200.99 20.3668 201.048 20.4294 201.078 20.5068C201.107 20.5842 201.105 20.6701 201.071 20.7456C201.047 20.8011 201.008 20.8484 200.958 20.8818C200.908 20.9152 200.849 20.9331 200.789 20.9333Z" fill="#FAFAFA"/>
<path d="M193.162 25.338C193.121 25.3472 193.078 25.3472 193.037 25.338L170.163 15.0395C170.086 15.0055 170.027 14.9425 169.997 14.8645C169.967 14.7865 169.969 14.6998 170.003 14.6234C170.037 14.5471 170.1 14.4874 170.178 14.4575C170.256 14.4276 170.343 14.4299 170.419 14.4639L193.294 24.7373C193.369 24.7715 193.428 24.8341 193.457 24.9115C193.486 24.9889 193.484 25.0748 193.45 25.1503C193.425 25.2058 193.385 25.2529 193.334 25.2862C193.283 25.3194 193.223 25.3374 193.162 25.338Z" fill="#FAFAFA"/>
<path d="M185.542 29.7365C185.498 29.7454 185.454 29.7454 185.41 29.7365L162.536 19.438C162.465 19.4009 162.412 19.3383 162.386 19.263C162.36 19.1877 162.364 19.1053 162.396 19.0327C162.429 18.9601 162.488 18.9027 162.562 18.8722C162.635 18.8417 162.718 18.8404 162.792 18.8686L185.667 29.1421C185.742 29.1762 185.801 29.2388 185.83 29.3162C185.86 29.3936 185.857 29.4795 185.823 29.555C185.799 29.6093 185.759 29.6554 185.709 29.6876C185.659 29.7198 185.601 29.7368 185.542 29.7365Z" fill="#FAFAFA"/>
<path d="M177.915 34.1412C177.871 34.1498 177.827 34.1498 177.783 34.1412L154.921 23.874C154.884 23.8577 154.849 23.834 154.821 23.8043C154.792 23.7745 154.77 23.7393 154.755 23.7007C154.741 23.6622 154.734 23.6211 154.736 23.5799C154.737 23.5387 154.747 23.4983 154.765 23.461C154.781 23.4226 154.804 23.3877 154.833 23.3585C154.863 23.3294 154.898 23.3065 154.937 23.2913C154.975 23.276 155.017 23.2688 155.058 23.2701C155.1 23.2713 155.14 23.2809 155.178 23.2984L178.071 33.5405C178.109 33.5569 178.143 33.5805 178.172 33.6101C178.201 33.6398 178.223 33.6748 178.238 33.7132C178.254 33.7515 178.261 33.7925 178.26 33.8338C178.259 33.875 178.25 33.9157 178.234 33.9535C178.207 34.0141 178.161 34.0647 178.104 34.0983C178.047 34.132 177.981 34.1469 177.915 34.1412Z" fill="#FAFAFA"/>
<path d="M170.288 38.5396C170.247 38.549 170.204 38.549 170.163 38.5396L147.288 28.2536C147.248 28.2385 147.212 28.2154 147.181 28.1857C147.151 28.1559 147.126 28.1203 147.11 28.0808C147.094 28.0413 147.086 27.999 147.086 27.9563C147.087 27.9136 147.096 27.8714 147.114 27.8325C147.131 27.7936 147.157 27.7586 147.188 27.7299C147.22 27.7011 147.257 27.6791 147.297 27.6652C147.338 27.6513 147.38 27.6458 147.423 27.6491C147.466 27.6524 147.507 27.6643 147.545 27.6843L170.419 37.9577C170.502 37.9751 170.575 38.0248 170.621 38.0958C170.668 38.1668 170.684 38.2533 170.666 38.3362C170.649 38.4192 170.599 38.4919 170.528 38.5382C170.457 38.5846 170.371 38.6008 170.288 38.5834V38.5396Z" fill="#FAFAFA"/>
<path d="M162.667 42.9443C162.624 42.9532 162.579 42.9532 162.536 42.9443L139.661 32.6333C139.586 32.5991 139.527 32.5365 139.498 32.4591C139.469 32.3817 139.471 32.2958 139.505 32.2203C139.539 32.1449 139.602 32.0861 139.679 32.0568C139.757 32.0275 139.842 32.0301 139.918 32.0639L162.792 42.3311C162.868 42.3653 162.927 42.4279 162.956 42.5053C162.985 42.5827 162.983 42.6685 162.949 42.7441C162.927 42.8019 162.889 42.8519 162.839 42.8876C162.789 42.9233 162.729 42.9431 162.667 42.9443Z" fill="#FAFAFA"/>
<path d="M155.04 47.349C154.999 47.3582 154.956 47.3582 154.915 47.349L132.041 37.0756C132.003 37.0593 131.969 37.0356 131.94 37.0059C131.912 36.9761 131.889 36.9409 131.875 36.9024C131.86 36.8638 131.854 36.8227 131.855 36.7815C131.857 36.7403 131.867 36.6999 131.884 36.6626C131.919 36.5872 131.981 36.5284 132.059 36.4991C132.136 36.4698 132.222 36.4724 132.297 36.5062L155.172 46.7797C155.247 46.8138 155.306 46.8764 155.335 46.9538C155.365 47.0312 155.362 47.1171 155.328 47.1926C155.299 47.2423 155.257 47.283 155.206 47.3106C155.155 47.3381 155.098 47.3514 155.04 47.349Z" fill="#FAFAFA"/>
<path d="M147.413 51.7474C147.372 51.7557 147.33 51.7557 147.288 51.7474L124.414 41.474C124.343 41.4368 124.29 41.3742 124.264 41.2989C124.238 41.2236 124.242 41.1413 124.274 41.0687C124.307 40.9961 124.366 40.9387 124.44 40.9082C124.513 40.8777 124.596 40.8764 124.67 40.9046L147.545 51.1718C147.621 51.2072 147.68 51.271 147.709 51.3494C147.738 51.4278 147.735 51.5146 147.701 51.591C147.672 51.6407 147.63 51.6814 147.579 51.709C147.528 51.7365 147.471 51.7498 147.413 51.7474Z" fill="#FAFAFA"/>
<path d="M139.793 56.1521C139.747 56.1506 139.703 56.14 139.661 56.1208L116.793 45.8536C116.755 45.8373 116.721 45.8136 116.692 45.784C116.664 45.7544 116.641 45.7194 116.626 45.681C116.611 45.6426 116.604 45.6016 116.604 45.5604C116.605 45.5191 116.614 45.4784 116.631 45.4407C116.665 45.3637 116.728 45.3034 116.807 45.2729C116.885 45.2425 116.973 45.2443 117.05 45.278L139.905 55.5515C139.943 55.5677 139.978 55.5914 140.006 55.6211C140.035 55.6509 140.057 55.6861 140.071 55.7247C140.086 55.7632 140.093 55.8043 140.091 55.8455C140.089 55.8867 140.079 55.9271 140.062 55.9644C140.039 56.0179 140.002 56.064 139.955 56.0973C139.907 56.1305 139.851 56.1495 139.793 56.1521Z" fill="#FAFAFA"/>
<path d="M132.166 60.5506C132.125 60.56 132.082 60.56 132.041 60.5506L109.166 50.2771C109.096 50.24 109.042 50.1774 109.016 50.1021C108.991 50.0268 108.994 49.9444 109.027 49.8718C109.06 49.7992 109.119 49.7418 109.192 49.7114C109.266 49.6809 109.348 49.6796 109.423 49.7077L132.297 59.9812C132.38 59.9986 132.453 60.0483 132.499 60.1193C132.546 60.1903 132.562 60.2768 132.544 60.3597C132.527 60.4427 132.477 60.5154 132.406 60.5617C132.335 60.6081 132.249 60.6243 132.166 60.6069V60.5506Z" fill="#FAFAFA"/>
<path d="M124.545 64.9553C124.502 64.9639 124.457 64.9639 124.414 64.9553L101.54 54.6568C101.465 54.6214 101.408 54.5587 101.378 54.4817C101.349 54.4048 101.351 54.3196 101.383 54.2438C101.399 54.2059 101.423 54.1717 101.453 54.1432C101.483 54.1147 101.518 54.0924 101.556 54.0778C101.595 54.0632 101.636 54.0566 101.677 54.0582C101.718 54.0599 101.759 54.0698 101.796 54.0874L124.67 64.3546C124.746 64.3888 124.805 64.4514 124.834 64.5288C124.863 64.6062 124.861 64.692 124.827 64.7676C124.804 64.823 124.764 64.8704 124.714 64.9038C124.664 64.9372 124.606 64.9551 124.545 64.9553Z" fill="#FAFAFA"/>
<path d="M116.918 69.3537C116.877 69.3631 116.834 69.3631 116.793 69.3537L93.9189 59.0553C93.881 59.039 93.8468 59.0153 93.8182 58.9856C93.7897 58.9558 93.7675 58.9206 93.7529 58.882C93.7383 58.8435 93.7316 58.8024 93.7332 58.7612C93.7349 58.72 93.7448 58.6796 93.7625 58.6423C93.7966 58.5669 93.8592 58.5081 93.9366 58.4788C94.014 58.4495 94.0999 58.452 94.1754 58.4859L117.044 68.7594C117.081 68.7757 117.116 68.7993 117.144 68.829C117.173 68.8586 117.196 68.8936 117.211 68.932C117.226 68.9704 117.233 69.0114 117.233 69.0526C117.232 69.0938 117.223 69.1345 117.206 69.1723C117.18 69.2262 117.139 69.2716 117.088 69.3036C117.037 69.3357 116.978 69.353 116.918 69.3537Z" fill="#FAFAFA"/>
<path d="M109.291 73.7585C109.25 73.7672 109.208 73.7672 109.166 73.7585L86.2919 63.485C86.2165 63.4509 86.1578 63.3882 86.1284 63.3108C86.0991 63.2334 86.1017 63.1476 86.1355 63.0721C86.1518 63.0342 86.1755 62.9999 86.2052 62.9714C86.235 62.9429 86.2702 62.9207 86.3087 62.9061C86.3473 62.8915 86.3884 62.8848 86.4296 62.8864C86.4708 62.8881 86.5112 62.898 86.5485 62.9156L109.423 73.1828C109.497 73.2182 109.555 73.2809 109.584 73.3579C109.613 73.4348 109.611 73.5201 109.579 73.5958C109.551 73.6471 109.509 73.6895 109.459 73.7182C109.408 73.747 109.35 73.7609 109.291 73.7585Z" fill="#FAFAFA"/>
<path d="M101.671 78.1632C101.625 78.1617 101.581 78.151 101.54 78.1319L78.6714 67.8584C78.633 67.8428 78.5981 67.8195 78.5689 67.79C78.5397 67.7605 78.5168 67.7254 78.5016 67.6868C78.4864 67.6482 78.4792 67.6069 78.4804 67.5654C78.4816 67.5239 78.4913 67.4831 78.5087 67.4455C78.5441 67.3712 78.6068 67.3134 78.6838 67.2843C78.7607 67.2551 78.8459 67.2569 78.9217 67.289L101.796 77.5625C101.834 77.5787 101.868 77.6024 101.897 77.6322C101.925 77.662 101.947 77.6972 101.962 77.7357C101.977 77.7743 101.983 77.8154 101.982 77.8566C101.98 77.8978 101.97 77.9382 101.952 77.9755C101.929 78.0309 101.89 78.0783 101.84 78.1117C101.79 78.145 101.731 78.1629 101.671 78.1632Z" fill="#FAFAFA"/>
<path d="M94.044 82.5615C94.0028 82.5709 93.9601 82.5709 93.9189 82.5615L71.0445 72.2881C71.0066 72.2718 70.9724 72.2481 70.9438 72.2184C70.9153 72.1886 70.8931 72.1534 70.8785 72.1149C70.8639 72.0763 70.8572 72.0352 70.8589 71.994C70.8605 71.9528 70.8704 71.9124 70.8881 71.8751C70.9222 71.7997 70.9848 71.7409 71.0622 71.7116C71.1396 71.6823 71.2255 71.6849 71.301 71.7187L94.1754 81.9922C94.2508 82.0263 94.3096 82.0889 94.3389 82.1663C94.3682 82.2437 94.3657 82.3296 94.3318 82.4051C94.302 82.4543 94.2596 82.4947 94.2091 82.5222C94.1585 82.5497 94.1015 82.5632 94.044 82.5615Z" fill="#FAFAFA"/>
<path d="M86.4171 86.9662C86.3738 86.9641 86.3312 86.9534 86.292 86.9349L63.4176 76.6677C63.3433 76.6323 63.2856 76.5696 63.2564 76.4927C63.2273 76.4157 63.229 76.3305 63.2612 76.2548C63.2775 76.2169 63.3011 76.1826 63.3308 76.1539C63.3604 76.1252 63.3954 76.1026 63.4338 76.0875C63.4722 76.0724 63.5132 76.065 63.5544 76.0658C63.5956 76.0666 63.6363 76.0755 63.6741 76.0921L86.5485 86.3656C86.6239 86.3997 86.6827 86.4623 86.712 86.5397C86.7413 86.6171 86.7388 86.703 86.7049 86.7785C86.6812 86.8349 86.6411 86.883 86.5898 86.9165C86.5385 86.9499 86.4784 86.9672 86.4171 86.9662Z" fill="#FAFAFA"/>
<path d="M78.7966 91.3647C78.7532 91.3736 78.7085 91.3736 78.6652 91.3647L55.797 81.0912C55.7591 81.075 55.7249 81.0513 55.6964 81.0215C55.6679 80.9918 55.6456 80.9566 55.631 80.918C55.6164 80.8795 55.6097 80.8384 55.6114 80.7972C55.613 80.756 55.623 80.7155 55.6406 80.6783C55.6747 80.6029 55.7374 80.5441 55.8148 80.5148C55.8922 80.4855 55.978 80.488 56.0535 80.5219L78.9217 90.7953C78.9596 90.8117 78.9939 90.8353 79.0226 90.8649C79.0513 90.8946 79.0738 90.9296 79.0889 90.968C79.1041 91.0063 79.1114 91.0473 79.1107 91.0886C79.1099 91.1298 79.1009 91.1705 79.0844 91.2083C79.0545 91.2575 79.0121 91.2979 78.9616 91.3253C78.911 91.3528 78.8541 91.3664 78.7966 91.3647Z" fill="#FAFAFA"/>
<path d="M39.4796 197.809H39.442C39.36 197.8 39.2851 197.759 39.2335 197.694C39.1819 197.63 39.1579 197.547 39.1667 197.465L51.6863 83.1809C51.6902 83.14 51.7023 83.1003 51.7218 83.0641C51.7413 83.0279 51.7679 82.996 51.8 82.9703C51.8321 82.9447 51.8691 82.9257 51.9087 82.9146C51.9483 82.9035 51.9897 82.9004 52.0305 82.9056C52.1125 82.9151 52.1874 82.9565 52.239 83.021C52.2905 83.0855 52.3145 83.1677 52.3057 83.2497L39.7987 197.509C39.7979 197.55 39.7889 197.59 39.7724 197.628C39.7558 197.665 39.732 197.698 39.7023 197.726C39.6725 197.754 39.6375 197.776 39.5993 197.79C39.561 197.805 39.5203 197.811 39.4796 197.809Z" fill="#FAFAFA"/>
<path d="M48.3015 202.884C48.219 202.876 48.1429 202.836 48.0892 202.773C48.0355 202.71 48.0084 202.628 48.0137 202.546L57.3987 85.6211C57.4018 85.5799 57.4131 85.5398 57.4318 85.5031C57.4505 85.4663 57.4763 85.4336 57.5077 85.4069C57.5391 85.3801 57.5755 85.3598 57.6148 85.3472C57.6541 85.3346 57.6954 85.3298 57.7365 85.3333C57.7777 85.3364 57.8178 85.3477 57.8545 85.3664C57.8913 85.3851 57.924 85.4109 57.9507 85.4423C57.9775 85.4737 57.9978 85.5101 58.0104 85.5494C58.023 85.5886 58.0278 85.63 58.0244 85.6711L48.6393 202.596C48.6314 202.678 48.5917 202.754 48.5286 202.808C48.4656 202.862 48.3841 202.889 48.3015 202.884Z" fill="#FAFAFA"/>
<path d="M57.017 207.739C56.9351 207.734 56.8584 207.697 56.8034 207.636C56.7484 207.575 56.7195 207.495 56.7229 207.414L63.0109 88.2301C63.0109 88.1471 63.0438 88.0676 63.1025 88.0089C63.1612 87.9502 63.2408 87.9173 63.3237 87.9173C63.4067 87.9173 63.4863 87.9502 63.5449 88.0089C63.6036 88.0676 63.6366 88.1471 63.6366 88.2301L57.3173 207.445C57.3127 207.522 57.2794 207.595 57.2239 207.65C57.1684 207.704 57.0946 207.736 57.017 207.739Z" fill="#FAFAFA"/>
<path d="M66.0767 213.151C66.0354 213.151 65.9945 213.143 65.9564 213.126C65.9184 213.11 65.884 213.087 65.8554 213.057C65.8268 213.027 65.8044 212.992 65.7898 212.953C65.7751 212.914 65.7685 212.873 65.7702 212.832L68.667 90.8267C68.6678 90.7856 68.6767 90.7451 68.6932 90.7074C68.7097 90.6698 68.7334 90.6358 68.763 90.6073C68.7927 90.5788 68.8276 90.5565 68.8659 90.5415C68.9042 90.5265 68.945 90.5193 68.9861 90.5201C69.0272 90.5209 69.0677 90.5298 69.1053 90.5463C69.143 90.5628 69.177 90.5865 69.2055 90.6161C69.2339 90.6458 69.2563 90.6807 69.2713 90.719C69.2862 90.7573 69.2935 90.7981 69.2927 90.8392L66.3958 212.844C66.395 212.885 66.3861 212.926 66.3696 212.964C66.3532 213.001 66.3294 213.035 66.2998 213.064C66.2702 213.092 66.2352 213.115 66.1969 213.13C66.1587 213.144 66.1178 213.152 66.0767 213.151Z" fill="#FAFAFA"/>
<path d="M74.6483 217.969C74.5653 217.969 74.4858 217.936 74.4271 217.877C74.3684 217.818 74.3355 217.739 74.3355 217.656V93.4482C74.3355 93.3652 74.3684 93.2856 74.4271 93.227C74.4858 93.1683 74.5653 93.1353 74.6483 93.1353C74.7313 93.1353 74.8109 93.1683 74.8695 93.227C74.9282 93.2856 74.9611 93.3652 74.9611 93.4482V217.656C74.9611 217.739 74.9282 217.818 74.8695 217.877C74.8109 217.936 74.7313 217.969 74.6483 217.969Z" fill="#FAFAFA"/>
<path d="M74.6483 204.123C74.593 204.124 74.5386 204.108 74.4919 204.079L30.351 178.877C30.2797 178.834 30.2276 178.765 30.2055 178.685C30.1834 178.604 30.1929 178.519 30.2322 178.445C30.2751 178.374 30.3444 178.322 30.4251 178.301C30.5058 178.28 30.5915 178.291 30.6639 178.333L74.836 203.541C74.8947 203.575 74.9404 203.629 74.9662 203.692C74.9919 203.755 74.9962 203.825 74.9785 203.891C74.9608 203.957 74.922 204.015 74.868 204.057C74.814 204.099 74.7479 204.122 74.6796 204.123H74.6483Z" fill="#FAFAFA"/>
<path d="M74.6483 193.086C74.5939 193.086 74.5402 193.073 74.4919 193.048L32.3469 169.273C32.2795 169.23 32.2311 169.163 32.2116 169.085C32.1922 169.007 32.2033 168.925 32.2426 168.856C32.2818 168.786 32.3463 168.734 32.4227 168.71C32.4992 168.687 32.5817 168.693 32.6535 168.728L74.7985 192.504C74.8568 192.538 74.9023 192.591 74.9282 192.654C74.9541 192.716 74.9589 192.786 74.942 192.851C74.925 192.917 74.8872 192.975 74.8343 193.017C74.7813 193.06 74.716 193.084 74.6483 193.086Z" fill="#FAFAFA"/>
<path d="M74.6484 182.049C74.596 182.049 74.5443 182.036 74.4982 182.011L34.3366 159.644C34.2691 159.601 34.2207 159.534 34.2013 159.456C34.1819 159.378 34.193 159.296 34.2322 159.227C34.2715 159.157 34.336 159.105 34.4124 159.081C34.4888 159.058 34.5714 159.064 34.6432 159.099L74.7985 181.455C74.8348 181.474 74.8667 181.501 74.8926 181.533C74.9186 181.565 74.9379 181.602 74.9495 181.641C74.9611 181.681 74.9648 181.722 74.9604 181.763C74.956 181.804 74.9435 181.844 74.9237 181.88C74.8965 181.93 74.8567 181.971 74.8085 182.001C74.7602 182.031 74.705 182.047 74.6484 182.049Z" fill="#FAFAFA"/>
<path d="M74.6484 171.012C74.5959 171.012 74.5443 171 74.4982 170.975L36.3325 150.046C36.2956 150.027 36.263 150.001 36.2366 149.969C36.2102 149.937 36.1906 149.9 36.1789 149.86C36.1672 149.82 36.1637 149.779 36.1686 149.737C36.1735 149.696 36.1867 149.657 36.2073 149.621C36.2269 149.584 36.2536 149.552 36.2858 149.527C36.318 149.501 36.3551 149.482 36.3948 149.471C36.4345 149.46 36.4761 149.457 36.517 149.462C36.5579 149.467 36.5973 149.481 36.6328 149.502L74.7985 170.424C74.8705 170.465 74.9237 170.532 74.9471 170.612C74.9704 170.691 74.962 170.776 74.9237 170.85C74.8966 170.899 74.8568 170.94 74.8084 170.969C74.7599 170.997 74.7046 171.012 74.6484 171.012Z" fill="#FAFAFA"/>
<path d="M74.6484 159.975C74.5957 159.978 74.5435 159.965 74.4982 159.938L38.3221 140.442C38.2502 140.401 38.1969 140.334 38.1736 140.255C38.1502 140.175 38.1586 140.09 38.197 140.017C38.2166 139.98 38.2433 139.948 38.2753 139.923C38.3073 139.897 38.3442 139.877 38.3837 139.866C38.4233 139.854 38.4647 139.85 38.5057 139.855C38.5466 139.859 38.5863 139.872 38.6225 139.891L74.7986 159.387C74.8705 159.428 74.9238 159.495 74.9471 159.575C74.9705 159.654 74.9621 159.739 74.9237 159.813C74.8972 159.863 74.8575 159.904 74.8089 159.933C74.7604 159.962 74.7048 159.976 74.6484 159.975Z" fill="#FAFAFA"/>
<path d="M74.6484 148.945C74.5961 148.944 74.5446 148.932 74.4982 148.907L40.318 130.863C40.2812 130.844 40.2486 130.818 40.2221 130.786C40.1956 130.754 40.1756 130.717 40.1634 130.678C40.1512 130.638 40.1469 130.597 40.1509 130.555C40.1549 130.514 40.167 130.474 40.1866 130.438C40.2264 130.366 40.292 130.313 40.37 130.288C40.448 130.264 40.5324 130.27 40.6058 130.306L74.7923 148.382C74.8566 148.413 74.9084 148.465 74.939 148.53C74.9695 148.594 74.977 148.668 74.9602 148.737C74.9433 148.807 74.9032 148.868 74.8465 148.912C74.7898 148.955 74.7198 148.978 74.6484 148.976V148.945Z" fill="#FAFAFA"/>
<path d="M74.6483 137.908C74.5979 137.908 74.5483 137.896 74.5044 137.871L42.3013 121.222C42.2287 121.183 42.1742 121.117 42.1496 121.039C42.125 120.961 42.1323 120.876 42.1699 120.802C42.2074 120.729 42.2726 120.673 42.3511 120.647C42.4297 120.621 42.5152 120.628 42.5891 120.665L74.7859 137.314C74.859 137.354 74.9136 137.42 74.9381 137.5C74.9627 137.579 74.9552 137.665 74.9173 137.739C74.8917 137.789 74.8532 137.831 74.8059 137.86C74.7586 137.89 74.7041 137.907 74.6483 137.908Z" fill="#FAFAFA"/>
<path d="M74.6484 126.871C74.598 126.871 74.5486 126.858 74.5045 126.834L44.3035 111.618C44.2288 111.58 44.172 111.515 44.1456 111.436C44.1192 111.356 44.1254 111.27 44.1627 111.195C44.2001 111.121 44.2655 111.064 44.3447 111.037C44.4239 111.011 44.5104 111.017 44.585 111.054L74.786 126.277C74.869 126.295 74.9413 126.346 74.9871 126.417C75.0328 126.489 75.0483 126.576 75.03 126.659C75.0118 126.742 74.9613 126.814 74.8897 126.86C74.8182 126.905 74.7313 126.921 74.6484 126.903V126.871Z" fill="#FAFAFA"/>
<path d="M74.6483 115.847C74.6029 115.857 74.5561 115.857 74.5107 115.847L46.2993 102.007C46.2246 101.971 46.1675 101.906 46.1405 101.828C46.1136 101.749 46.1189 101.663 46.1554 101.588C46.1919 101.513 46.2566 101.456 46.3352 101.429C46.4138 101.402 46.4999 101.408 46.5746 101.444L74.786 115.221C74.8498 115.252 74.9012 115.304 74.9318 115.368C74.9624 115.432 74.9704 115.504 74.9544 115.574C74.9384 115.643 74.8994 115.704 74.8438 115.748C74.7881 115.792 74.7192 115.816 74.6483 115.816V115.847Z" fill="#FAFAFA"/>
<path d="M74.6483 215.159C74.593 215.16 74.5386 215.145 74.4919 215.116L28.3614 188.481C28.3251 188.461 28.2931 188.435 28.2673 188.402C28.2416 188.37 28.2226 188.333 28.2115 188.293C28.2004 188.254 28.1974 188.212 28.2027 188.171C28.2081 188.13 28.2216 188.091 28.2425 188.055C28.2855 187.984 28.3548 187.932 28.4354 187.911C28.5161 187.89 28.6018 187.901 28.6742 187.943L74.836 214.577C74.8947 214.612 74.9404 214.665 74.9662 214.729C74.9919 214.792 74.9962 214.862 74.9785 214.928C74.9608 214.994 74.922 215.052 74.868 215.094C74.814 215.136 74.7478 215.159 74.6796 215.159H74.6483Z" fill="#FAFAFA"/>
<path d="M28.1112 190.483H28.0487C28.0084 190.475 27.9701 190.459 27.9361 190.436C27.902 190.413 27.8728 190.383 27.8502 190.349C27.8275 190.315 27.8118 190.276 27.804 190.236C27.7962 190.196 27.7964 190.154 27.8046 190.114L48.777 89.4815C49.2775 87.2291 49.5278 87.0664 49.4903 87.2353L28.4178 190.233C28.4023 190.303 28.3636 190.366 28.308 190.411C28.2524 190.457 28.183 190.482 28.1112 190.483Z" fill="#FAFAFA"/>
<path d="M74.6483 104.798C74.6028 104.797 74.5579 104.786 74.5169 104.766L48.2952 92.397C48.23 92.3567 48.1819 92.2939 48.1599 92.2205C48.138 92.147 48.1438 92.0681 48.1762 91.9986C48.2086 91.9292 48.2654 91.874 48.3358 91.8437C48.4061 91.8133 48.4852 91.8098 48.558 91.8339L74.7797 104.203C74.8208 104.212 74.8598 104.229 74.8944 104.252C74.9291 104.276 74.9587 104.306 74.9817 104.341C75.0046 104.377 75.0204 104.416 75.0282 104.457C75.0359 104.498 75.0355 104.541 75.0268 104.582C75.0182 104.623 75.0016 104.662 74.9779 104.697C74.9542 104.731 74.9239 104.761 74.8888 104.784C74.8536 104.807 74.8143 104.823 74.773 104.83C74.7318 104.838 74.6894 104.838 74.6483 104.829V104.798Z" fill="#FAFAFA"/>
<path d="M74.6483 93.761C74.605 93.7699 74.5603 93.7699 74.517 93.761L50.2911 82.7931C50.2207 82.7559 50.167 82.6933 50.1411 82.618C50.1152 82.5427 50.119 82.4604 50.1517 82.3878C50.1844 82.3152 50.2436 82.2578 50.3172 82.2273C50.3907 82.1968 50.4731 82.1955 50.5476 82.2237L74.7735 93.1604C74.8146 93.1686 74.8536 93.1848 74.8884 93.2081C74.9232 93.2314 74.9531 93.2614 74.9764 93.2962C74.9996 93.3311 75.0157 93.3702 75.0239 93.4113C75.032 93.4524 75.032 93.4947 75.0237 93.5358C75.0155 93.5769 74.9993 93.6159 74.976 93.6507C74.9527 93.6855 74.9227 93.7154 74.8879 93.7387C74.853 93.7619 74.8139 93.778 74.7728 93.7862C74.7317 93.7943 74.6894 93.7943 74.6483 93.786V93.761Z" fill="#FAFAFA"/>
<path d="M197.226 67.6228C201.431 63.4177 201.431 56.5999 197.226 52.3949C193.021 48.1898 186.204 48.1898 181.999 52.3949C177.793 56.5999 177.793 63.4177 181.999 67.6228C186.204 71.8278 193.021 71.8278 197.226 67.6228Z" fill="#F5F5F5"/>
<path d="M191.498 54.7693C189.987 54.8976 188.515 55.3228 187.168 56.0207C187.031 57.4773 187.031 58.9437 187.168 60.4003C188.392 61.0266 189.698 61.4754 191.048 61.733C191.048 61.733 193.106 60.0249 193.669 58.4795C193.259 57.0842 192.514 55.8105 191.498 54.7693Z" fill="#455A64"/>
<path d="M184.284 54.1562L183.978 53.5305L183.921 53.6118C183.903 53.6332 183.886 53.6563 183.871 53.6807L184.159 54.25L187.118 56.0332L187.437 56.2709C187.448 56.2487 187.46 56.2278 187.475 56.2084L187.544 56.1395L187.206 55.8955L184.284 54.1562Z" fill="#455A64"/>
<path d="M190.434 49.9955C190.184 49.9955 189.915 49.9392 189.621 49.9142C188.049 49.8064 186.484 50.2103 185.16 51.0654L184.534 51.4158C184.563 51.4644 184.584 51.5171 184.597 51.5722L185.223 51.2031C186.521 50.3622 188.059 49.9689 189.602 50.0831C189.978 50.0831 190.316 50.1457 190.61 50.1895C190.536 50.1402 190.476 50.0736 190.434 49.9955Z" fill="#455A64"/>
<path d="M192.537 51.4033L192.399 51.8725L191.423 54.7318L191.192 55.3575C191.247 55.3684 191.302 55.3852 191.354 55.4075L191.579 54.8131L192.555 51.9538L192.699 51.4721C192.643 51.4554 192.588 51.4323 192.537 51.4033Z" fill="#455A64"/>
<path d="M197.73 58.5171C197.622 58.6099 197.507 58.6936 197.386 58.7674C196.158 58.5557 194.919 58.4137 193.675 58.3419H193.613C193.538 58.3357 193.462 58.3357 193.388 58.3419C193.394 58.398 193.394 58.4547 193.388 58.5108C193.481 58.501 193.575 58.501 193.669 58.5108C194.915 58.589 196.155 58.7331 197.386 58.9425H197.417H197.448C197.448 58.9425 197.586 58.855 197.773 58.6985C197.752 58.6399 197.737 58.579 197.73 58.5171Z" fill="#455A64"/>
<path d="M196.172 52.5357C197.25 53.4606 198.075 54.6449 198.568 55.9769C198.607 56.1057 198.634 56.2376 198.649 56.3711C198.701 56.3458 198.756 56.3269 198.812 56.3148C198.791 56.1837 198.762 56.0542 198.725 55.9269C198.225 54.5691 197.387 53.3611 196.291 52.4169L196.084 52.2167C195.955 52.0903 195.82 51.9713 195.678 51.86C195.67 51.8873 195.657 51.9128 195.64 51.9351L195.577 51.9914C195.713 52.0988 195.843 52.2137 195.965 52.3355L196.172 52.5357Z" fill="#455A64"/>
<path d="M191.129 61.683C191.129 61.6142 191.216 61.389 191.329 61.0949C191.265 61.1298 191.195 61.1511 191.123 61.1574C191.029 61.4327 190.972 61.6267 190.966 61.658L192.024 65.6685C192.024 65.6685 192.393 65.9376 192.787 66.1941H192.824L193.006 66.1503C192.687 65.9438 192.38 65.7248 192.142 65.5684L191.129 61.683Z" fill="#455A64"/>
<path d="M198.587 62.2211C198.509 62.4347 198.42 62.6436 198.318 62.8467C197.674 64.0995 196.784 65.2102 195.703 66.1127C195.546 66.194 195.283 66.3254 195.002 66.4506C195.053 66.4839 195.097 66.5263 195.133 66.5757C195.452 66.4318 195.759 66.2879 195.79 66.2504C196.903 65.3358 197.816 64.203 198.474 62.9218C198.562 62.7216 198.649 62.5339 198.725 62.3462L198.587 62.2211Z" fill="#455A64"/>
<path d="M187.631 59.9811C187.481 60.0625 187.312 60.1563 187.125 60.2752C185.989 61.0342 184.919 61.8881 183.927 62.8279C183.89 62.8968 183.752 63.1345 183.602 63.4536L183.715 63.6038C183.84 63.3285 183.971 63.0907 184.065 62.928C185.047 62.0071 186.104 61.1699 187.225 60.4254C187.431 60.3002 187.613 60.2001 187.775 60.1125C187.724 60.073 187.676 60.029 187.631 59.9811Z" fill="#455A64"/>
<path d="M190.003 68.0147L189.039 67.9584C187.607 67.8512 186.233 67.3463 185.072 66.5006C185.072 66.5006 184.847 66.4443 184.553 66.3442C184.556 66.4004 184.556 66.4568 184.553 66.5131C184.785 66.5944 184.972 66.6445 185.029 66.657C186.211 67.5201 187.611 68.0359 189.07 68.1461C189.402 68.1461 189.696 68.1836 189.971 68.1961C189.97 68.1342 189.98 68.0726 190.003 68.0147Z" fill="#455A64"/>
<path d="M180.862 61.5203C180.917 61.5049 180.975 61.5049 181.031 61.5203C180.978 61.3313 180.939 61.139 180.912 60.9447C180.799 59.5277 180.868 58.102 181.118 56.7027C181.167 56.4471 181.229 56.1943 181.306 55.9456H181.187H181.131C181.062 56.1771 181.006 56.4149 180.956 56.6652C180.699 58.0827 180.629 59.5279 180.749 60.9635C180.775 61.1513 180.812 61.3373 180.862 61.5203Z" fill="#455A64"/>
<path d="M189.615 49.9956C190.689 50.4345 191.662 51.0881 192.474 51.9164C193.668 51.8277 194.869 51.9484 196.022 52.273C195.988 51.9201 195.925 51.5706 195.834 51.2281C194.26 50.1111 192.414 49.4389 190.491 49.2823C190.184 49.5007 189.891 49.739 189.615 49.9956Z" fill="#455A64"/>
<path d="M200.057 57.3847C199.645 56.8522 199.17 56.3712 198.643 55.9519C198.331 56.9616 197.912 57.9349 197.392 58.855C197.821 60.17 198.154 61.5146 198.387 62.878C198.975 62.76 199.551 62.5882 200.107 62.365C200.281 61.5928 200.369 60.8039 200.37 60.0125C200.375 59.127 200.27 58.2443 200.057 57.3847Z" fill="#455A64"/>
<path d="M182.451 67.2889C183.345 67.2165 184.217 66.97 185.016 66.5632C185.016 66.5632 184.472 64.9302 183.984 62.8905C182.886 62.3352 181.839 61.684 180.855 60.9447C180.855 60.9447 180.18 61.6454 180.023 63.8728C180.606 65.1564 181.431 66.3161 182.451 67.2889Z" fill="#455A64"/>
<path d="M180.18 54.8131C180.309 55.4989 180.603 56.1431 181.037 56.6901C181.853 55.5942 182.955 54.7436 184.222 54.2312C184.472 53.18 184.8 52.149 185.204 51.1467C184.672 51.0854 184.137 51.0665 183.602 51.0904C182.184 52.0439 181.011 53.3195 180.18 54.8131Z" fill="#455A64"/>
<path d="M195.74 66.1816C194.507 66.1431 193.283 65.9604 192.092 65.6372C191.157 66.5421 190.132 67.3492 189.033 68.0461C189.436 68.8774 190.022 69.6068 190.747 70.1796C192.128 70.0311 193.472 69.6436 194.72 69.0346C195.236 68.1559 195.582 67.1881 195.74 66.1816Z" fill="#455A64"/>
<path opacity="0.1" d="M198.881 65.4933C197.079 68.046 190.122 69.6602 185.704 63.9103C181.287 58.1604 183.827 51.5597 187.056 49.52C185.331 49.9418 183.737 50.7838 182.416 51.9709C181.095 53.158 180.088 54.6534 179.485 56.3239C178.882 57.9944 178.702 59.788 178.96 61.5451C179.218 63.3022 179.907 64.9681 180.965 66.3945C182.023 67.8209 183.418 68.9634 185.024 69.7203C186.631 70.4773 188.4 70.8251 190.173 70.7328C191.947 70.6404 193.67 70.1109 195.189 69.1913C196.708 68.2716 197.977 66.9905 198.881 65.462V65.4933Z" fill="black"/>
<path d="M156.173 148.638C155.441 149.833 155.829 151.886 158.932 154.313C162.035 156.741 179.954 166.827 185.279 157.654C190.603 148.482 164.307 144.084 164.307 144.084C164.307 144.084 160.696 144.528 156.173 148.638Z" fill="#E0E0E0"/>
<path d="M184.647 157.911C184.303 159.982 183.127 164.167 180.267 175.886C177.339 187.774 176.613 188.975 173.335 191.315C170.207 193.536 155.891 203.891 152.45 206.719C149.265 207.97 147.576 206.794 147.514 203.028C147.514 203.028 150.504 198.736 154.177 193.893C157.781 189.15 160.089 186.698 166.121 184.464L169.431 155.371L184.647 157.911Z" fill="#FFA8A7"/>
<path d="M156.517 180.622C154.987 182.691 153.24 184.589 151.305 186.285C143.797 193.255 138.792 198.398 133.298 203.872C131.822 205.349 130.345 206.838 128.888 208.333C128.5 208.727 127.899 209.635 127.38 209.791C126.479 210.066 125.396 209.003 125.033 208.308C124.605 207.347 124.437 206.29 124.545 205.242C124.582 204.433 124.67 203.626 124.808 202.827C124.965 201.908 126.059 201.019 126.623 200.325C126.623 200.325 127.067 199.787 127.58 199.105C129.895 195.933 132.398 190.521 136.033 184.796C138.792 180.485 141.989 178.964 144.686 177.206C144.686 177.206 153.232 157.185 159.702 148.25L175.612 153.794C175.612 153.794 157.981 178.677 156.517 180.622Z" fill="#FFA8A7"/>
<path d="M146.162 202.49C145.762 202.702 145.011 203.178 144.911 203.572C144.736 205.144 144.396 206.694 143.897 208.196C143.215 209.979 141.019 212.982 141.695 216.079C142.283 218.801 143.441 219.877 144.542 220.615C144.966 220.94 145.462 221.157 145.988 221.248C146.514 221.34 147.055 221.303 147.564 221.141C147.564 221.141 149.059 220.64 148.896 219.689C148.734 218.738 146.162 202.49 146.162 202.49Z" fill="#37474F"/>
<path d="M145.981 202.596C146.156 202.164 146.807 201.839 147.157 201.564C147.666 201.217 148.142 200.823 148.577 200.387C148.727 200.212 148.896 199.993 149.059 199.83C149.222 199.668 149.397 199.443 149.628 199.474L149.96 199.593C149.901 199.668 149.846 199.748 149.797 199.83C149.689 200.18 149.624 200.541 149.603 200.907C149.603 201.27 149.728 201.626 149.71 201.989C149.66 202.909 148.921 203.616 149.203 204.579C149.628 203.691 150.11 202.665 150.704 202.934C151.099 203.109 151.587 203.96 152.35 204.429C153.113 204.898 153.827 205.005 154.089 205.255C154.352 205.505 154.002 205.837 153.401 206.682C152.689 207.623 152.081 208.638 151.587 209.71C151.286 210.598 150.999 211.524 150.755 212.431C149.841 215.91 150.304 218.1 149.284 219.745C148.264 221.391 145.073 220.859 143.653 218.394C141.282 214.19 143.171 211.793 144.085 209.816C144.713 208.555 145.15 207.208 145.38 205.818C145.599 204.51 145.536 203.753 145.981 202.596Z" fill="#27A798"/>
<path opacity="0.4" d="M145.981 202.596C146.156 202.164 146.807 201.839 147.157 201.564C147.666 201.217 148.142 200.823 148.577 200.387C148.727 200.212 148.896 199.993 149.059 199.83C149.222 199.668 149.397 199.443 149.628 199.474L149.96 199.593C149.901 199.668 149.846 199.748 149.797 199.83C149.689 200.18 149.624 200.541 149.603 200.907C149.603 201.27 149.728 201.626 149.71 201.989C149.66 202.909 148.921 203.616 149.203 204.579C149.628 203.691 150.11 202.665 150.704 202.934C151.099 203.109 151.587 203.96 152.35 204.429C153.113 204.898 153.827 205.005 154.089 205.255C154.352 205.505 154.002 205.837 153.401 206.682C152.689 207.623 152.081 208.638 151.587 209.71C151.286 210.598 150.999 211.524 150.755 212.431C149.841 215.91 150.304 218.1 149.284 219.745C148.264 221.391 145.073 220.859 143.653 218.394C141.282 214.19 143.171 211.793 144.085 209.816C144.713 208.555 145.15 207.208 145.38 205.818C145.599 204.51 145.536 203.753 145.981 202.596Z" fill="black"/>
<path opacity="0.15" d="M149.172 204.41C149.021 203.534 149.666 202.852 149.71 201.989C149.71 201.626 149.616 201.27 149.603 200.907C149.624 200.541 149.689 200.18 149.797 199.83C149.846 199.748 149.901 199.668 149.96 199.593L149.628 199.474C149.397 199.443 149.222 199.668 149.059 199.83C148.996 199.893 148.934 199.968 148.871 200.043C148.851 200.072 148.834 200.104 148.821 200.137C148.76 200.319 148.72 200.508 148.702 200.7C148.627 201.213 148.577 201.733 148.54 202.252C148.54 202.508 148.502 202.759 148.496 203.015C148.491 203.208 148.47 203.401 148.433 203.591C148.352 203.96 148.127 204.266 148.027 204.629C147.919 205.022 147.783 205.407 147.62 205.781C146.894 207.407 146.106 208.584 145.618 210.842C145.13 213.101 145.618 213.545 146.162 213.458C146.706 213.37 146.538 212.675 146.925 210.68C147.326 208.584 148.571 206.638 149.203 204.579C149.189 204.524 149.179 204.467 149.172 204.41Z" fill="black"/>
<path opacity="0.15" d="M144.316 214.84C145.13 215.929 145.843 216.092 146.281 214.984C146.548 214.202 146.642 213.372 146.556 212.55L149.328 213.883C149.328 213.883 148.314 215.76 148.702 216.467C148.934 216.905 149.616 216.661 150.141 216.21C149.991 217.662 149.897 218.794 149.309 219.745C148.246 221.454 145.099 220.859 143.678 218.394C141.695 214.872 142.696 212.619 143.609 210.817C143.09 211.925 143.503 213.745 144.316 214.84Z" fill="black"/>
<path opacity="0.15" d="M153.339 206.775C152.662 207.695 152.075 208.678 151.587 209.71C151.286 210.598 150.999 211.524 150.755 212.431C150.598 213.026 150.486 213.583 150.398 214.102C150.262 214.356 150.064 214.571 149.822 214.728C149.322 214.89 149.197 214.79 149.328 213.883C149.503 212.857 151.668 207.77 153.339 206.775Z" fill="black"/>
<path d="M149.954 214.421C149.904 214.456 149.845 214.474 149.785 214.474C149.724 214.474 149.665 214.456 149.616 214.421C148.451 213.689 147.187 213.128 145.862 212.757C145.789 212.738 145.727 212.691 145.689 212.627C145.65 212.562 145.638 212.486 145.655 212.413C145.676 212.34 145.724 212.278 145.789 212.239C145.854 212.201 145.932 212.189 146.006 212.206C147.383 212.593 148.696 213.179 149.904 213.946C149.935 213.966 149.962 213.992 149.984 214.023C150.005 214.054 150.02 214.089 150.027 214.126C150.035 214.162 150.035 214.2 150.028 214.237C150.02 214.274 150.006 214.309 149.985 214.34L149.954 214.421Z" fill="#E0E0E0"/>
<path d="M150.429 213.032C150.378 213.078 150.311 213.104 150.242 213.104C150.172 213.104 150.105 213.078 150.054 213.032C148.983 212.076 147.64 211.479 146.212 211.324C146.144 211.31 146.083 211.272 146.04 211.217C145.998 211.161 145.977 211.092 145.982 211.023C145.986 210.953 146.016 210.888 146.065 210.838C146.115 210.789 146.18 210.759 146.25 210.755C147.811 210.919 149.279 211.577 150.442 212.632C150.494 212.685 150.523 212.757 150.523 212.832C150.523 212.907 150.494 212.978 150.442 213.032H150.429Z" fill="#E0E0E0"/>
<path d="M150.992 211.768C150.965 211.793 150.932 211.811 150.897 211.823C150.862 211.835 150.825 211.839 150.789 211.836C150.752 211.833 150.716 211.823 150.683 211.806C150.651 211.789 150.622 211.765 150.598 211.737C149.56 210.645 148.181 209.941 146.688 209.741C146.613 209.732 146.545 209.694 146.497 209.636C146.449 209.578 146.426 209.503 146.431 209.428C146.439 209.353 146.476 209.284 146.535 209.236C146.594 209.188 146.669 209.165 146.744 209.172C148.381 209.383 149.894 210.158 151.024 211.362C151.05 211.388 151.071 211.419 151.085 211.453C151.1 211.488 151.107 211.525 151.107 211.562C151.107 211.599 151.1 211.636 151.085 211.67C151.071 211.705 151.05 211.736 151.024 211.762L150.992 211.768Z" fill="#E0E0E0"/>
<path d="M151.587 210.436C151.526 210.481 151.45 210.5 151.375 210.49C151.3 210.479 151.232 210.439 151.186 210.379C150.21 209.226 148.842 208.475 147.345 208.271C147.308 208.268 147.272 208.257 147.239 208.24C147.206 208.223 147.176 208.199 147.153 208.171C147.129 208.142 147.111 208.109 147.1 208.074C147.089 208.038 147.085 208.001 147.088 207.964C147.096 207.889 147.133 207.82 147.192 207.772C147.25 207.724 147.326 207.701 147.401 207.708C149.06 207.913 150.578 208.746 151.643 210.035C151.687 210.096 151.705 210.172 151.695 210.247C151.684 210.321 151.645 210.389 151.587 210.436Z" fill="#E0E0E0"/>
<path d="M152.181 208.997C152.15 209.018 152.116 209.033 152.079 209.04C152.043 209.048 152.005 209.048 151.968 209.041C151.932 209.034 151.897 209.02 151.865 209C151.834 208.979 151.808 208.952 151.787 208.921C150.536 207.044 147.908 206.775 147.883 206.769C147.808 206.76 147.74 206.722 147.692 206.664C147.644 206.606 147.621 206.531 147.626 206.456C147.636 206.381 147.674 206.312 147.734 206.265C147.794 206.219 147.87 206.197 147.945 206.206C148.058 206.206 150.836 206.531 152.256 208.596C152.278 208.627 152.293 208.662 152.3 208.699C152.308 208.736 152.309 208.775 152.302 208.812C152.295 208.849 152.28 208.885 152.26 208.916C152.239 208.948 152.212 208.975 152.181 208.997Z" fill="#E0E0E0"/>
<path d="M152.8 207.82C152.77 207.841 152.735 207.856 152.699 207.864C152.662 207.872 152.624 207.872 152.588 207.865C152.551 207.858 152.516 207.844 152.485 207.823C152.454 207.803 152.427 207.776 152.406 207.745C151.937 207.156 151.355 206.665 150.694 206.302C150.034 205.939 149.308 205.711 148.558 205.63C148.483 205.627 148.412 205.595 148.361 205.54C148.309 205.485 148.281 205.412 148.283 205.336C148.286 205.261 148.319 205.189 148.374 205.136C148.428 205.084 148.501 205.055 148.577 205.055C149.415 205.142 150.228 205.396 150.966 205.802C151.704 206.208 152.354 206.758 152.876 207.42C152.897 207.451 152.912 207.486 152.92 207.523C152.928 207.56 152.928 207.598 152.921 207.636C152.914 207.673 152.9 207.708 152.879 207.74C152.858 207.772 152.832 207.799 152.8 207.82Z" fill="#E0E0E0"/>
<path d="M123.294 202.346C122.869 202.502 122.043 202.877 121.905 203.259C121.531 204.796 120.996 206.289 120.31 207.714C119.415 209.397 116.85 212.094 117.125 215.259C117.369 218.031 118.376 219.245 119.377 220.121C119.757 220.495 120.221 220.773 120.731 220.93C121.241 221.087 121.781 221.118 122.305 221.022C122.305 221.022 123.857 220.715 123.813 219.771C123.77 218.826 123.294 202.346 123.294 202.346Z" fill="#37474F"/>
<path d="M123.069 202.408C123.233 202.086 123.476 201.81 123.776 201.607C124.139 201.402 124.489 201.172 124.821 200.919C125.165 200.613 125.396 200.2 125.74 199.893C125.899 199.729 126.105 199.619 126.328 199.576C126.552 199.534 126.784 199.561 126.992 199.655C127.02 199.682 127.045 199.711 127.067 199.743L126.898 199.956C126.682 200.288 126.561 200.673 126.548 201.069C126.491 201.495 126.491 201.92 126.454 202.352C126.416 202.795 126.341 203.235 126.228 203.666C126.172 203.86 126.085 204.06 126.041 204.26C125.997 204.46 126.085 204.723 126.041 204.798C126.579 203.979 127.186 203.021 127.743 203.359C128.105 203.584 128.487 204.492 129.182 205.055C129.876 205.618 130.571 205.812 130.802 206.093C131.034 206.375 130.646 206.656 129.939 207.42C129.113 208.265 128.381 209.196 127.755 210.198C127.342 211.036 126.935 211.925 126.585 212.788C125.234 216.123 125.421 218.356 124.201 219.858C122.981 221.36 119.878 220.427 118.808 217.806C116.987 213.339 119.165 211.199 120.328 209.353C121.11 208.181 121.713 206.899 122.118 205.549C122.318 204.836 122.431 204.104 122.668 203.403C122.775 203.061 122.909 202.729 123.069 202.408Z" fill="#27A798"/>
<path opacity="0.4" d="M123.069 202.408C123.233 202.086 123.476 201.81 123.776 201.607C124.139 201.402 124.489 201.172 124.821 200.919C125.165 200.613 125.396 200.2 125.74 199.893C125.899 199.729 126.105 199.619 126.328 199.576C126.552 199.534 126.784 199.561 126.992 199.655C127.02 199.682 127.045 199.711 127.067 199.743L126.898 199.956C126.682 200.288 126.561 200.673 126.548 201.069C126.491 201.495 126.491 201.92 126.454 202.352C126.416 202.795 126.341 203.235 126.228 203.666C126.172 203.86 126.085 204.06 126.041 204.26C125.997 204.46 126.085 204.723 126.041 204.798C126.579 203.979 127.186 203.021 127.743 203.359C128.105 203.584 128.487 204.492 129.182 205.055C129.876 205.618 130.571 205.812 130.802 206.093C131.034 206.375 130.646 206.656 129.939 207.42C129.113 208.265 128.381 209.196 127.755 210.198C127.342 211.036 126.935 211.925 126.585 212.788C125.234 216.123 125.421 218.356 124.201 219.858C122.981 221.36 119.878 220.427 118.808 217.806C116.987 213.339 119.165 211.199 120.328 209.353C121.11 208.181 121.713 206.899 122.118 205.549C122.318 204.836 122.431 204.104 122.668 203.403C122.775 203.061 122.909 202.729 123.069 202.408Z" fill="black"/>
<path opacity="0.15" d="M126.053 204.26C126.097 204.06 126.185 203.86 126.241 203.666C126.353 203.235 126.429 202.795 126.466 202.352C126.504 201.92 126.504 201.495 126.56 201.069C126.574 200.673 126.695 200.288 126.91 199.956L127.079 199.743C127.058 199.711 127.033 199.682 127.004 199.655C126.797 199.561 126.565 199.534 126.341 199.576C126.117 199.619 125.912 199.729 125.753 199.893L125.722 199.931C125.676 200.086 125.643 200.245 125.622 200.406C125.559 200.932 125.528 201.657 125.453 202.17C125.343 202.924 125.148 203.663 124.871 204.373C123.845 207.007 122.287 209.028 121.342 211.693C121.193 212.051 121.137 212.44 121.179 212.826C121.267 213.157 121.48 213.451 121.805 213.332C122.13 213.213 122.205 212.913 122.299 212.669C122.924 211.054 123.656 209.482 124.489 207.964C124.802 207.395 125.152 206.844 125.428 206.256C125.59 205.906 125.916 205.161 126.053 204.798C126.097 204.723 126.028 204.379 126.053 204.26Z" fill="black"/>
<path opacity="0.15" d="M119.884 214.359C120.554 215.547 121.248 215.773 121.817 214.753C122.181 214.011 122.379 213.2 122.399 212.375L124.983 214.046C124.983 214.046 123.732 215.773 124.007 216.548C124.176 217.011 124.883 216.855 125.465 216.473C125.133 217.9 124.896 219.007 124.214 219.877C122.962 221.435 119.89 220.446 118.82 217.825C117.3 214.071 118.576 211.975 119.715 210.317C119.052 211.318 119.258 213.17 119.884 214.359Z" fill="black"/>
<path opacity="0.15" d="M129.895 207.501C129.106 208.329 128.4 209.233 127.786 210.198C127.373 211.036 126.967 211.925 126.616 212.788C126.385 213.357 126.203 213.895 126.047 214.402C125.886 214.634 125.672 214.823 125.421 214.953C124.908 215.047 124.796 214.953 125.046 214.046C125.34 213.057 128.137 208.283 129.92 207.501H129.895Z" fill="black"/>
<path d="M125.515 214.659C125.467 214.696 125.407 214.717 125.346 214.717C125.285 214.717 125.226 214.696 125.177 214.659C124.123 213.789 122.949 213.075 121.692 212.538C121.658 212.524 121.626 212.503 121.6 212.477C121.573 212.451 121.552 212.42 121.538 212.386C121.523 212.351 121.516 212.315 121.515 212.277C121.515 212.24 121.522 212.203 121.536 212.169C121.55 212.134 121.571 212.103 121.597 212.076C121.623 212.05 121.654 212.029 121.688 212.014C121.722 211.999 121.759 211.992 121.796 211.992C121.834 211.991 121.871 211.998 121.905 212.012C123.22 212.569 124.447 213.315 125.546 214.227C125.573 214.253 125.594 214.284 125.608 214.319C125.623 214.353 125.63 214.39 125.63 214.427C125.63 214.465 125.623 214.501 125.608 214.536C125.594 214.57 125.573 214.601 125.546 214.628C125.537 214.639 125.527 214.65 125.515 214.659Z" fill="#E0E0E0"/>
<path d="M126.191 213.345C126.132 213.383 126.062 213.398 125.993 213.387C125.923 213.377 125.861 213.342 125.815 213.289C124.878 212.203 123.624 211.437 122.23 211.099C122.157 211.085 122.091 211.042 122.049 210.98C122.007 210.917 121.991 210.841 122.005 210.767C122.019 210.693 122.062 210.628 122.124 210.586C122.186 210.544 122.263 210.528 122.337 210.542C123.865 210.898 125.24 211.733 126.26 212.926C126.284 212.955 126.301 212.988 126.312 213.024C126.323 213.06 126.326 213.098 126.322 213.135C126.318 213.172 126.306 213.209 126.288 213.241C126.27 213.274 126.245 213.303 126.216 213.326L126.191 213.345Z" fill="#E0E0E0"/>
<path d="M126.91 212.162C126.848 212.203 126.772 212.217 126.7 212.202C126.627 212.186 126.563 212.143 126.522 212.081C125.634 210.859 124.357 209.977 122.9 209.578C122.859 209.575 122.82 209.562 122.784 209.542C122.748 209.522 122.717 209.494 122.693 209.461C122.669 209.428 122.652 209.39 122.644 209.35C122.636 209.31 122.636 209.269 122.645 209.229C122.654 209.189 122.671 209.151 122.696 209.118C122.721 209.086 122.752 209.059 122.788 209.039C122.824 209.019 122.864 209.008 122.905 209.005C122.945 209.002 122.987 209.007 123.025 209.022C124.622 209.439 126.024 210.399 126.992 211.737C127.013 211.768 127.028 211.802 127.036 211.839C127.043 211.875 127.044 211.913 127.037 211.95C127.03 211.986 127.015 212.021 126.995 212.052C126.974 212.084 126.948 212.11 126.917 212.131L126.91 212.162Z" fill="#E0E0E0"/>
<path d="M127.667 210.911C127.635 210.93 127.598 210.942 127.561 210.947C127.523 210.952 127.485 210.95 127.448 210.94C127.412 210.93 127.377 210.913 127.347 210.89C127.317 210.867 127.292 210.838 127.273 210.805C126.454 209.537 125.191 208.62 123.732 208.233C123.659 208.214 123.597 208.168 123.557 208.104C123.517 208.04 123.504 207.963 123.519 207.889C123.537 207.815 123.583 207.752 123.648 207.712C123.712 207.672 123.79 207.659 123.863 207.676C125.482 208.092 126.881 209.11 127.774 210.523C127.793 210.556 127.805 210.591 127.81 210.628C127.815 210.666 127.812 210.703 127.802 210.739C127.792 210.776 127.775 210.809 127.752 210.839C127.729 210.868 127.7 210.893 127.667 210.911Z" fill="#E0E0E0"/>
<path d="M128.443 209.566C128.41 209.583 128.374 209.593 128.336 209.596C128.299 209.599 128.262 209.595 128.226 209.583C128.191 209.572 128.158 209.553 128.13 209.529C128.101 209.504 128.078 209.474 128.062 209.441C127.042 207.451 124.489 206.819 124.464 206.813C124.427 206.805 124.392 206.789 124.361 206.768C124.331 206.746 124.305 206.718 124.285 206.686C124.265 206.654 124.252 206.618 124.246 206.581C124.24 206.543 124.242 206.505 124.251 206.469C124.269 206.395 124.315 206.332 124.38 206.292C124.444 206.252 124.522 206.239 124.595 206.256C124.708 206.287 127.423 206.957 128.568 209.184C128.586 209.217 128.596 209.254 128.599 209.291C128.602 209.328 128.597 209.366 128.586 209.401C128.574 209.437 128.556 209.47 128.531 209.498C128.507 209.526 128.477 209.549 128.443 209.566Z" fill="#E0E0E0"/>
<path d="M129.207 208.446C129.139 208.481 129.061 208.489 128.988 208.466C128.915 208.444 128.854 208.394 128.819 208.327C128.428 207.682 127.913 207.121 127.304 206.677C126.695 206.232 126.004 205.913 125.271 205.737C125.197 205.723 125.131 205.68 125.087 205.618C125.044 205.556 125.027 205.48 125.04 205.405C125.046 205.369 125.059 205.333 125.079 205.302C125.098 205.27 125.124 205.243 125.154 205.222C125.184 205.2 125.219 205.185 125.255 205.177C125.291 205.168 125.328 205.167 125.365 205.174C126.185 205.363 126.959 205.716 127.639 206.212C128.32 206.708 128.893 207.335 129.325 208.058C129.361 208.125 129.368 208.204 129.346 208.276C129.324 208.349 129.274 208.41 129.207 208.446Z" fill="#E0E0E0"/>
<path d="M159.67 146.004C159.67 146.004 156.974 150.265 153.827 155.552C150.842 160.557 149.265 162.972 147.758 165.656C147.758 165.656 146.506 169.498 153.126 172.864C159.745 176.23 162.68 173.627 162.68 173.627L166.309 169.048L165.627 177.181C165.627 177.181 166.966 179.834 173.322 180.028C178.027 180.172 180.336 178.683 180.336 178.683C180.336 178.683 184.653 163.498 185.304 157.629C185.304 157.629 183.008 152.899 176.113 148.244C169.218 143.589 159.67 146.004 159.67 146.004Z" fill="#455A64"/>
<path d="M176.113 148.294C169.231 143.671 159.67 146.004 159.67 146.004L157.168 150.002C158.92 149.126 163.424 151.742 168.924 154.451C173.929 156.953 180.374 158.393 185.291 157.654C185.304 157.654 183.008 152.924 176.113 148.294Z" fill="#37474F"/>
<path d="M199.863 113.732C199.025 115.459 190.66 129.937 188.357 132.796C182.726 129.825 186.061 119.132 186.061 119.132C190.372 113.82 192.737 110.798 193.719 109.121C194.077 108.377 194.313 107.581 194.42 106.762C194.601 105.88 196.209 95.0312 195.947 91.7026C195.895 91.1144 195.628 90.5662 195.196 90.1635C194.051 89.0623 193.7 88.105 192.925 86.8599C192.299 85.8901 191.673 85.546 191.855 85.3083C192.065 85.0561 192.362 84.8919 192.688 84.8479C193.013 84.8039 193.343 84.8833 193.613 85.0705C194.219 85.4725 194.776 85.9451 195.271 86.4783C195.055 85.1904 194.633 83.9458 194.019 82.7931C192.643 80.1403 192.856 78.7388 196.585 79.4833C198.925 79.9463 201.077 81.986 201.759 87.4793C201.882 89.4691 201.882 91.4647 201.759 93.4545C201.646 98.0656 201.565 105.43 201.221 108.602C201.067 110.377 200.608 112.113 199.863 113.732Z" fill="#FFA8A7"/>
<path d="M183.702 119.295C185.704 118.863 192.668 110.573 192.668 110.573C194.545 110.341 199.413 114.865 198.643 116.861C196.234 121.534 191.267 129.374 190.509 132.371C189.84 134.054 189.471 129.337 188.357 125.977C186.831 121.278 182.075 119.645 183.702 119.295Z" fill="#455A64"/>
<path d="M163.981 128.942C164.809 131.112 165.321 133.39 165.502 135.706C165.557 136.348 165.48 136.995 165.276 137.606C165.071 138.217 164.744 138.78 164.313 139.26C160.853 143.132 156.617 147.769 156.179 148.645C160.171 146.974 163.687 150.346 168.067 152.655C174.248 155.896 180.011 157.904 185.254 157.66C185.254 157.66 192.136 141.85 189.965 129.143C189.102 124.137 187.112 119.413 183.658 119.301C179.842 119.169 174.374 119.388 175.306 119.357L168.949 118.888C168.949 118.888 162.242 124.55 163.981 128.942Z" fill="#EBEBEB"/>
<path d="M162.736 109.465C162.279 108.934 160.183 110.091 158.619 111.668C157.055 113.244 156.085 115.053 156.742 115.979C157.13 116.517 162.486 115.146 162.486 115.146L163.787 110.842L162.736 109.465Z" fill="#37474F"/>
<path d="M153.67 108.69C154.114 110.567 162.918 124.882 164.888 128.398C169.531 124.613 168.436 119.013 168.436 119.013C168.436 119.013 160.928 107.901 160.171 106.099C160.039 105.464 160.006 104.812 160.071 104.166C160.071 103.265 160.571 96.0323 161.554 92.8476C161.734 92.2837 162.115 91.8053 162.623 91.5024C163.975 90.6828 164.532 89.8256 165.558 88.7808C166.359 87.9611 167.041 87.7609 166.941 87.5294C166.794 87.2335 166.541 87.0042 166.232 86.8881C165.923 86.7719 165.581 86.7775 165.276 86.9038C164.597 87.1587 163.952 87.497 163.355 87.9111C163.836 86.7007 164.51 85.5765 165.351 84.5825C167.266 82.2926 167.372 80.8786 163.568 80.791C161.184 80.7409 158.638 82.2425 156.773 87.4731C156.113 89.6903 155.574 91.9419 155.159 94.2178C154.258 98.7476 153.87 101.851 153.52 105.023C153.269 106.239 153.32 107.498 153.67 108.69Z" fill="#FFA8A7"/>
<path d="M170.05 118.976L162.736 109.465C163.124 110.216 162.861 111.605 161.203 113.488C160.227 114.583 157.731 116.229 156.749 115.991L163.787 128.598C164.413 130.294 168.411 128.373 169.575 125.026C171.189 120.339 170.05 118.976 170.05 118.976Z" fill="#455A64"/>
<path d="M174.511 103.421C174.769 104.571 175.362 105.619 176.215 106.431C177.068 107.244 178.143 107.785 179.304 107.987C180.465 108.189 181.659 108.042 182.737 107.564C183.814 107.087 184.725 106.301 185.356 105.305C185.986 104.31 186.307 103.15 186.278 101.972C186.249 100.794 185.871 99.6511 185.192 98.6879C184.514 97.7247 183.565 96.9845 182.465 96.5607C181.366 96.137 180.166 96.0489 179.016 96.3075C178.253 96.4784 177.531 96.798 176.891 97.248C176.252 97.6981 175.707 98.2699 175.289 98.9306C174.871 99.5913 174.586 100.328 174.453 101.099C174.32 101.869 174.339 102.658 174.511 103.421Z" fill="#263238"/>
<path d="M167.034 103.959C167.16 103.629 167.377 103.34 167.66 103.127C168.01 102.877 168.473 102.42 168.83 102.827C169.062 103.09 169.062 103.603 169.162 103.922C169.518 105.023 169.869 106.124 170.225 107.219C170.263 107.332 170.638 108.189 170.563 108.283L171.502 107.082L173.379 116.404C173.139 116.431 172.897 116.386 172.683 116.274C172.469 116.163 172.293 115.99 172.177 115.778C171.552 114.815 171.151 113.757 170.663 112.869C170.175 111.98 169.412 110.742 168.874 109.816C168.06 108.408 167.128 107.444 166.884 105.836C166.794 105.353 166.794 104.856 166.884 104.372C166.92 104.23 166.97 104.091 167.034 103.959Z" fill="#263238"/>
<path d="M171.721 109.859C171.377 110.191 170.638 109.553 170.025 109.146C169.412 108.74 167.654 108.402 167.235 110.266C166.815 112.131 168.836 114.108 170.194 114.22C172.528 114.414 172.54 112.938 172.54 112.938L174.248 120.045C176.338 125.019 184.409 122.41 181.613 119.526L180.987 116.573C181.993 116.51 182.989 116.34 183.959 116.066C185.504 115.44 186.23 113.964 186.324 112.118C186.48 109.159 186.274 106.844 184.378 101.482C182.301 95.6381 175.3 97.1459 172.059 100.368C168.818 103.59 171.721 109.859 171.721 109.859Z" fill="#FFA8A7"/>
<path d="M182.933 100.112C182.875 100.117 182.82 100.141 182.776 100.18C182.736 100.225 182.708 100.278 182.695 100.337C182.376 101.388 181.168 101.913 180.148 101.932C179.758 101.94 179.37 101.874 179.003 101.738C178.644 101.593 178.335 101.345 178.115 101.025C177.953 101.424 177.69 101.773 177.35 102.038C177.011 102.303 176.608 102.473 176.182 102.533C175.321 102.644 174.448 102.45 173.717 101.982C173.836 102.357 173.83 102.761 173.697 103.132C173.565 103.503 173.315 103.82 172.985 104.035C172.614 104.229 172.211 104.356 171.796 104.41C172 104.57 172.161 104.779 172.264 105.017C172.366 105.255 172.408 105.515 172.384 105.774C172.352 106.031 172.258 106.277 172.108 106.489C171.958 106.7 171.759 106.872 171.527 106.988C171.801 107.237 171.982 107.572 172.04 107.939C172.151 108.275 172.235 108.621 172.29 108.971C172.29 109.296 172.328 110.423 171.871 110.535C171.671 110.585 170.62 109.49 170.025 109.146C169.719 108.971 169.612 108.427 169.531 108.12C169.37 107.492 169.248 106.855 169.168 106.212C169.151 105.782 169.06 105.359 168.899 104.961C168.692 104.616 168.198 104.416 167.873 104.203C167.487 103.977 167.18 103.639 166.991 103.234C166.585 102.35 166.514 101.35 166.79 100.418C166.98 99.6952 167.394 99.0512 167.973 98.5787C168.266 98.3492 168.61 98.1936 168.976 98.125C169.342 98.0564 169.719 98.0768 170.075 98.1845C169.978 97.5763 170.042 96.9531 170.262 96.3777C170.481 95.8022 170.849 95.2946 171.327 94.906C172.478 93.9925 173.735 94.1677 175.081 94.4368C175.37 93.9368 175.768 93.5085 176.246 93.1836C176.724 92.8587 177.268 92.6454 177.84 92.5598C178.406 92.5355 178.969 92.6432 179.486 92.8745C180.003 93.1059 180.459 93.4544 180.818 93.8924C181.313 93.6001 181.871 93.4316 182.445 93.4011C183.019 93.3706 183.592 93.479 184.115 93.7173C184.818 94.0348 185.386 94.5912 185.717 95.2877C185.855 95.5973 185.954 95.9231 186.011 96.2575C186.136 96.7861 186.136 97.3367 186.011 97.8654C185.81 98.3647 185.475 98.798 185.041 99.1168C184.449 99.6446 183.717 99.9901 182.933 100.112Z" fill="#263238"/>
<path d="M180.974 116.573C180.974 116.573 177.22 116.654 175.831 116.273C175.01 116.054 174.274 115.594 173.717 114.952C174.072 115.641 174.561 116.251 175.156 116.748C176.332 117.712 181.187 117.524 181.187 117.524L180.974 116.573Z" fill="#F28F8F"/>
<path d="M178.622 107.213C178.646 107.354 178.629 107.499 178.572 107.631C178.515 107.762 178.421 107.874 178.301 107.952C178.181 108.03 178.04 108.072 177.897 108.071C177.754 108.07 177.614 108.027 177.495 107.948C177.375 107.869 177.282 107.756 177.226 107.624C177.171 107.492 177.155 107.346 177.181 107.206C177.207 107.065 177.274 106.935 177.373 106.831C177.472 106.728 177.6 106.656 177.74 106.625C177.836 106.605 177.936 106.604 178.033 106.623C178.129 106.642 178.222 106.68 178.304 106.734C178.386 106.789 178.456 106.86 178.511 106.942C178.565 107.024 178.603 107.116 178.622 107.213Z" fill="#263238"/>
<path d="M181.612 112.957C181.633 113.051 181.636 113.148 181.619 113.243C181.602 113.338 181.567 113.428 181.515 113.51C181.464 113.591 181.397 113.662 181.318 113.717C181.239 113.772 181.15 113.812 181.056 113.832C180.962 113.853 180.864 113.856 180.769 113.839C180.674 113.822 180.584 113.787 180.502 113.735C180.421 113.684 180.351 113.617 180.295 113.538C180.24 113.459 180.201 113.37 180.18 113.276C180.159 113.182 180.157 113.084 180.173 112.989C180.19 112.894 180.225 112.804 180.277 112.722C180.328 112.641 180.396 112.571 180.475 112.515C180.553 112.46 180.642 112.421 180.737 112.4C180.831 112.379 180.928 112.377 181.023 112.393C181.118 112.41 181.208 112.445 181.29 112.497C181.371 112.548 181.442 112.616 181.497 112.695C181.552 112.773 181.592 112.862 181.612 112.957Z" fill="#F28F8F"/>
<path d="M177.202 104.885L175.569 105.693C175.461 105.471 175.444 105.217 175.521 104.983C175.598 104.749 175.763 104.555 175.982 104.441C176.09 104.385 176.209 104.352 176.33 104.344C176.452 104.336 176.574 104.354 176.689 104.396C176.804 104.437 176.908 104.502 176.997 104.587C177.085 104.671 177.155 104.773 177.202 104.885Z" fill="#263238"/>
<path d="M183.959 103.146L182.151 103.296C182.136 103.179 182.145 103.06 182.177 102.947C182.209 102.833 182.264 102.728 182.339 102.636C182.413 102.544 182.505 102.468 182.609 102.413C182.713 102.358 182.828 102.324 182.945 102.314C183.188 102.298 183.428 102.375 183.617 102.529C183.805 102.684 183.927 102.904 183.959 103.146Z" fill="#263238"/>
<path d="M184.003 105.211C184.026 105.306 184.03 105.405 184.015 105.502C184 105.599 183.966 105.692 183.915 105.776C183.863 105.859 183.796 105.932 183.717 105.99C183.637 106.048 183.547 106.089 183.452 106.112C183.305 106.151 183.149 106.145 183.005 106.094C182.861 106.044 182.736 105.952 182.645 105.83C182.554 105.708 182.501 105.561 182.494 105.409C182.487 105.257 182.526 105.106 182.606 104.976C182.685 104.846 182.802 104.742 182.94 104.679C183.079 104.616 183.233 104.596 183.383 104.621C183.534 104.646 183.673 104.716 183.783 104.821C183.894 104.926 183.97 105.062 184.003 105.211Z" fill="#263238"/>
<path d="M180.705 106.5L181.907 110.76L183.99 109.49L180.705 106.5Z" fill="#F28F8F"/>
<path d="M166.309 169.029L171.589 161.321C174.456 160.994 177.274 160.333 179.986 159.35C179.986 159.35 178.184 161.577 172.478 162.591L167.041 170.099L165.602 177.206L166.309 169.029Z" fill="#37474F"/>
<path d="M155.578 91.5086C155.886 89.5259 156.332 87.567 156.911 85.6461C157.806 82.8619 158.857 80.7096 161.654 80.0151C164.45 79.3206 165.952 80.2153 166.84 81.2665C167.729 82.3176 166.115 83.8505 165.201 84.9141C164.613 85.6259 164.154 86.4346 163.844 87.3042C163.844 87.3042 165.527 86.0153 166.628 86.6222C167.729 87.2291 167.648 87.5482 166.628 88.4992C165.608 89.4502 164.231 90.8579 163.312 91.5712C162.675 92.0568 162.071 92.5835 161.504 93.1479C161.504 93.1479 157.556 93.9487 155.578 91.5086Z" fill="#27A798"/>
<path opacity="0.4" d="M155.578 91.5086C155.886 89.5259 156.332 87.567 156.911 85.6461C157.806 82.8619 158.857 80.7096 161.654 80.0151C164.45 79.3206 165.952 80.2153 166.84 81.2665C167.729 82.3176 166.115 83.8505 165.201 84.9141C164.613 85.6259 164.154 86.4346 163.844 87.3042C163.844 87.3042 165.527 86.0153 166.628 86.6222C167.729 87.2291 167.648 87.5482 166.628 88.4992C165.608 89.4502 164.231 90.8579 163.312 91.5712C162.675 92.0568 162.071 92.5835 161.504 93.1479C161.504 93.1479 157.556 93.9487 155.578 91.5086Z" fill="black"/>
<path d="M155.578 91.5086C155.23 92.2092 155.103 92.9992 155.216 93.7735C155.216 93.7735 156.999 95.588 161.009 95.0812C161.214 94.8181 161.364 94.516 161.449 94.1934C161.534 93.8707 161.552 93.5342 161.503 93.2042C161.503 93.2042 157.737 93.6109 155.578 91.5086Z" fill="#37474F"/>
<path d="M201.984 90.8892C202.108 88.8864 202.093 86.8774 201.94 84.8766C201.665 81.9672 201.096 79.6397 198.518 78.3634C195.94 77.087 194.276 77.6314 193.175 78.4948C192.074 79.3582 193.025 81.2352 193.694 82.4678C194.129 83.2936 194.502 84.1511 194.808 85.033C194.808 85.033 193.438 83.4125 192.236 83.7817C191.035 84.1508 191.035 84.4636 191.83 85.6149C192.624 86.7661 193.663 88.4366 194.407 89.3313C194.926 89.9422 195.405 90.5859 195.84 91.2584C195.84 91.2584 199.525 92.8601 201.984 90.8892Z" fill="#27A798"/>
<path opacity="0.4" d="M201.984 90.8892C202.108 88.8864 202.093 86.8774 201.94 84.8766C201.665 81.9672 201.096 79.6397 198.518 78.3634C195.94 77.087 194.276 77.6314 193.175 78.4948C192.074 79.3582 193.025 81.2352 193.694 82.4678C194.129 83.2936 194.502 84.1511 194.808 85.033C194.808 85.033 193.438 83.4125 192.236 83.7817C191.035 84.1508 191.035 84.4636 191.83 85.6149C192.624 86.7661 193.663 88.4366 194.407 89.3313C194.926 89.9422 195.405 90.5859 195.84 91.2584C195.84 91.2584 199.525 92.8601 201.984 90.8892Z" fill="black"/>
<path d="M201.984 90.8893C202.172 91.6489 202.124 92.4476 201.847 93.1792C201.847 93.1792 199.719 94.5745 195.909 93.1792C195.762 92.8756 195.679 92.5446 195.668 92.2073C195.656 91.8701 195.715 91.5341 195.84 91.2209C195.84 91.2209 199.425 92.4785 201.984 90.8893Z" fill="#37474F"/>
</svg>
