<svg width="16" height="16" viewBox="0 0 16 16" fill="none" xmlns="http://www.w3.org/2000/svg">
<path d="M11.9457 9.54681C11.773 9.71414 11.6937 9.95614 11.733 10.1935L12.3257 13.4735C12.3757 13.7515 12.2583 14.0328 12.0257 14.1935C11.7977 14.3601 11.4943 14.3801 11.2457 14.2468L8.29299 12.7068C8.19032 12.6521 8.07632 12.6228 7.95965 12.6195H7.77899C7.71632 12.6288 7.65499 12.6488 7.59899 12.6795L4.64565 14.2268C4.49965 14.3001 4.33432 14.3261 4.17232 14.3001C3.77765 14.2255 3.51432 13.8495 3.57899 13.4528L4.17232 10.1728C4.21165 9.93348 4.13232 9.69014 3.95965 9.52014L1.55232 7.18681C1.35099 6.99148 1.28099 6.69814 1.37299 6.43348C1.46232 6.16948 1.69032 5.97681 1.96565 5.93348L5.27899 5.45281C5.53099 5.42681 5.75232 5.27348 5.86565 5.04681L7.32565 2.05348C7.36032 1.98681 7.40499 1.92548 7.45899 1.87348L7.51899 1.82681C7.55032 1.79214 7.58632 1.76348 7.62632 1.74014L7.69899 1.71348L7.81232 1.66681H8.09299C8.34365 1.69281 8.56432 1.84281 8.67965 2.06681L10.159 5.04681C10.2657 5.26481 10.473 5.41614 10.7123 5.45281L14.0257 5.93348C14.3057 5.97348 14.5397 6.16681 14.6323 6.43348C14.7197 6.70081 14.6443 6.99414 14.439 7.18681L11.9457 9.54681Z" fill="#FFD600"/>
</svg>
