<svg width="16" height="16" viewBox="0 0 16 16" fill="none" xmlns="http://www.w3.org/2000/svg">
<path fill-rule="evenodd" clip-rule="evenodd" d="M12.3007 2.6665C13.7887 2.6665 14.9994 3.86517 14.9994 5.33784L15 7.06717C15 7.19917 14.9474 7.32717 14.8534 7.4205C14.76 7.5145 14.6327 7.56717 14.5 7.56717C13.9754 7.56717 13.5487 7.98584 13.5487 8.5005C13.5487 9.01517 13.9754 9.43384 14.5 9.43384C14.776 9.43384 15 9.65784 15 9.93384V11.6618C15 13.1345 13.7894 14.3332 12.3014 14.3332H3.36535C1.87735 14.3332 0.666687 13.1345 0.666687 11.6618V9.93384C0.666687 9.65784 0.890687 9.43384 1.16669 9.43384C1.69135 9.43384 2.11802 9.01517 2.11802 8.5005C2.11802 8.0005 1.70869 7.62317 1.16669 7.62317C1.03402 7.62317 0.906687 7.5705 0.813354 7.4765C0.719354 7.38317 0.666687 7.25517 0.666687 7.12317L0.667354 5.33784C0.667354 3.86517 1.87802 2.6665 3.36602 2.6665H12.3007ZM12.3007 3.6665H9.56602L9.56642 4.9473C9.56642 5.2233 9.34242 5.4473 9.06642 5.4473C8.79042 5.4473 8.56642 5.2233 8.56642 4.9473L8.56602 3.6665H3.36602C2.42935 3.6665 1.66735 4.4165 1.66735 5.33784L1.66669 6.68317C2.51135 6.8905 3.11802 7.6145 3.11802 8.5005C3.11802 9.39517 2.50069 10.1498 1.66669 10.3692V11.6618C1.66669 12.5832 2.42869 13.3332 3.36535 13.3332H8.56602L8.56642 12.3408C8.56642 12.0642 8.79042 11.8408 9.06642 11.8408C9.34242 11.8408 9.56642 12.0642 9.56642 12.3408L9.56602 13.3332H12.3014C13.238 13.3332 14 12.5832 14 11.6618V10.3692C13.166 10.1498 12.5487 9.39517 12.5487 8.5005C12.5487 7.60517 13.1654 6.85117 14 6.63184L13.9994 5.33784C13.9994 4.4165 13.2374 3.6665 12.3007 3.6665ZM9.06642 6.33617C9.34242 6.33617 9.56642 6.56017 9.56642 6.83617V10.0502C9.56642 10.3262 9.34242 10.5502 9.06642 10.5502C8.79042 10.5502 8.56642 10.3262 8.56642 10.0502V6.83617C8.56642 6.56017 8.79042 6.33617 9.06642 6.33617Z" fill="black" fill-opacity="0.5"/>
</svg>
