<svg width="16" height="16" viewBox="0 0 16 16" fill="none" xmlns="http://www.w3.org/2000/svg">
<path fill-rule="evenodd" clip-rule="evenodd" d="M7.99998 1.33331C11.676 1.33331 14.6666 4.32398 14.6666 7.99998C14.6666 11.676 11.676 14.6666 7.99998 14.6666C4.32398 14.6666 1.33331 11.676 1.33331 7.99998C1.33331 4.32398 4.32398 1.33331 7.99998 1.33331ZM7.99998 2.33331C4.87531 2.33331 2.33331 4.87531 2.33331 7.99998C2.33331 11.1246 4.87531 13.6666 7.99998 13.6666C11.1246 13.6666 13.6666 11.1246 13.6666 7.99998C13.6666 4.87531 11.1246 2.33331 7.99998 2.33331ZM7.77411 4.73025C8.05078 4.73025 8.27411 4.95425 8.27411 5.23025V8.17825L10.5441 9.53158C10.7808 9.67358 10.8588 9.98025 10.7174 10.2176C10.6234 10.3742 10.4574 10.4616 10.2874 10.4616C10.2001 10.4616 10.1121 10.4389 10.0314 10.3916L7.51811 8.89225C7.36745 8.80158 7.27411 8.63825 7.27411 8.46225V5.23025C7.27411 4.95425 7.49811 4.73025 7.77411 4.73025Z" fill="black" fill-opacity="0.5"/>
</svg>
